<!--?xml version="1.0" standalone="no"?-->              <svg id="sw-js-blob-svg" viewBox="0 0 100 100" xmlns="http://www.w3.org/2000/svg">                    <defs>                         <linearGradient id="sw-gradient" x1="0" x2="1" y1="1" y2="0">                            <stop id="stop1" stop-color="rgba(248, 117, 55, 1)" offset="0%"></stop>                            <stop id="stop2" stop-color="rgba(251, 168, 31, 1)" offset="100%"></stop>                        </linearGradient>                    </defs>                <path fill="url(#sw-gradient)" d="M17.9,-26.9C24.5,-23.5,32.3,-20.9,37.6,-15.4C42.9,-9.9,45.8,-1.4,43.7,5.5C41.5,12.5,34.3,18,28.1,23.3C21.9,28.7,16.7,34,9.9,37.8C3.2,41.6,-5.2,43.9,-11.2,40.9C-17.3,37.9,-21,29.6,-25.7,23C-30.4,16.3,-36.2,11.2,-36.9,5.4C-37.6,-0.4,-33.2,-6.8,-29.6,-13C-26,-19.3,-23.1,-25.4,-18.3,-29.6C-13.5,-33.8,-6.8,-36.1,-0.6,-35.2C5.6,-34.3,11.2,-30.2,17.9,-26.9Z" width="100%" height="100%" transform="translate(50 50)" stroke-width="0" style="transition: all 0.3s ease 0s;"></path>              </svg>