<?xml version="1.0" encoding="UTF-8" standalone="no"?>
<!DOCTYPE svg PUBLIC "-//W3C//DTD SVG 1.1//EN" "http://www.w3.org/Graphics/SVG/1.1/DTD/svg11.dtd">
<svg xmlns="http://www.w3.org/2000/svg" version="1.1" viewBox="0.00 0.00 278.00 374.00">
<path fill="#fff" d="
  M 168.21 56.73
  C 156.07 68.19 145.37 80.39 126.75 78.68
  Q 104.17 76.60 81.50 76.26
  C 59.51 75.93 37.82 79.51 16.84 86.03
  A 0.84 0.83 82.7 0 1 15.76 85.19
  Q 16.52 69.68 17.13 53.94
  C 18.42 20.36 53.18 12.65 80.18 12.07
  Q 124.35 11.13 158.75 15.76
  C 185.18 19.32 213.75 27.38 233.25 46.36
  C 255.01 67.55 261.59 97.45 261.65 127.01
  C 261.74 165.45 253.80 207.97 214.67 225.42
  Q 198.14 232.79 178.30 235.06
  Q 150.74 238.21 122.07 237.70
  Q 120.97 237.68 120.95 238.78
  Q 120.14 278.92 117.48 319.49
  Q 117.27 322.76 116.32 328.03
  C 111.92 352.56 84.31 364.74 62.08 362.71
  C 41.72 360.85 26.96 348.76 21.22 328.75
  C 15.93 310.27 14.73 290.42 13.97 271.31
  Q 12.41 232.05 12.79 192.70
  A 0.38 0.37 -4.5 0 1 13.11 192.33
  C 20.29 191.19 27.06 190.23 34.05 187.67
  C 39.46 185.69 58.39 177.62 63.07 178.82
  Q 80.93 183.41 98.50 189.03
  C 106.87 191.71 112.61 192.14 120.47 189.66
  C 131.22 186.27 141.14 181.92 152.26 179.52
  C 157.03 178.49 159.33 179.89 162.63 183.58
  C 165.31 186.57 191.34 209.84 192.32 197.14
  C 192.81 190.94 196.00 185.75 191.07 180.66
  Q 182.28 171.60 177.25 166.24
  C 166.59 154.86 148.35 156.76 136.31 151.54
  C 127.34 147.65 133.82 136.42 142.58 138.17
  C 154.63 140.57 167.04 140.41 179.25 142.48
  C 184.46 143.37 192.46 144.13 197.79 142.44
  C 204.29 140.38 212.49 135.00 212.12 127.28
  Q 212.01 125.13 209.90 120.49
  Q 207.02 114.18 205.87 107.32
  C 203.82 95.14 196.11 83.53 187.53 74.91
  C 179.34 66.67 191.39 55.78 186.95 47.58
  C 183.51 41.22 172.44 52.73 168.21 56.73
  Z"
/>
</svg>
