<?xml version="1.0" encoding="UTF-8" standalone="no"?>
<!DOCTYPE svg PUBLIC "-//W3C//DTD SVG 1.1//EN" "http://www.w3.org/Graphics/SVG/1.1/DTD/svg11.dtd">
<svg xmlns="http://www.w3.org/2000/svg" version="1.1" viewBox="0.00 0.00 208.00 150.00">
<g stroke-width="2.00" fill="none" stroke-linecap="butt">
<path stroke="#7e7d7d" vector-effect="non-scaling-stroke" d="
  M 126.84 8.90
  L 128.71 15.85"
/>
<path stroke="#804927" vector-effect="non-scaling-stroke" d="
  M 129.50 28.56
  Q 130.99 34.15 131.10 40.40"
/>
<path stroke="#7e7d7d" vector-effect="non-scaling-stroke" d="
  M 128.71 43.75
  L 124.55 47.12"
/>
<path stroke="#7e7d7d" vector-effect="non-scaling-stroke" d="
  M 123.71 51.49
  Q 124.65 54.47 126.60 54.35"
/>
<path stroke="#804927" vector-effect="non-scaling-stroke" d="
  M 128.94 57.49
  L 135.38 71.03"
/>
<path stroke="#7e7d7d" vector-effect="non-scaling-stroke" d="
  M 135.38 71.03
  L 136.93 78.68"
/>
<path stroke="#804927" vector-effect="non-scaling-stroke" d="
  M 136.93 78.68
  Q 136.74 84.12 134.82 89.03"
/>
<path stroke="#7e7d7d" vector-effect="non-scaling-stroke" d="
  M 134.82 89.03
  L 131.36 92.57"
/>
<path stroke="#804927" vector-effect="non-scaling-stroke" d="
  M 131.36 92.57
  L 128.66 93.89
  Q 128.17 94.12 128.05 94.65
  L 123.21 114.76"
/>
<path stroke="#7e7d7d" vector-effect="non-scaling-stroke" d="
  M 123.21 114.76
  Q 122.53 116.01 122.44 117.48"
/>
<path stroke="#804927" vector-effect="non-scaling-stroke" d="
  M 122.44 117.48
  Q 122.01 118.45 122.41 119.73"
/>
<path stroke="#5a4e4f" vector-effect="non-scaling-stroke" d="
  M 112.05 133.79
  C 100.40 127.87 103.14 117.33 104.82 107.00
  A 0.66 0.66 0.0 0 0 103.95 106.27
  L 102.05 106.92
  A 0.61 0.59 -14.8 0 0 101.65 107.59
  Q 103.56 118.27 100.71 128.33"
/>
<path stroke="#5a4e4f" vector-effect="non-scaling-stroke" d="
  M 87.37 149.33
  C 82.64 145.26 87.99 134.58 90.50 128.95
  Q 95.22 118.40 92.27 107.27
  Q 91.95 106.07 90.54 106.65
  Q 90.10 106.83 90.16 107.31
  C 91.10 113.98 93.50 124.53 88.21 129.72
  Q 85.97 131.92 85.31 132.87"
/>
<path stroke="#5a4e4f" vector-effect="non-scaling-stroke" d="
  M 78.92 134.14
  Q 73.72 131.91 72.36 127.62
  C 71.36 124.46 73.21 119.54 72.31 116.97
  Q 68.59 106.27 66.88 94.95
  Q 66.80 94.44 66.34 94.19
  C 48.62 84.59 62.88 57.91 74.65 49.67
  C 76.29 48.52 77.27 46.92 78.76 45.65
  A 0.85 0.84 -51.3 0 0 78.61 44.26
  C 75.24 42.48 66.40 35.53 68.01 31.00
  Q 69.82 25.89 70.91 20.59
  Q 73.02 10.26 78.62 0.80"
/>
<path stroke="#713133" vector-effect="non-scaling-stroke" d="
  M 81.56 2.79
  A 1.04 1.03 43.6 0 0 79.83 2.83
  Q 75.36 10.13 73.44 18.49
  A 0.20 0.19 71.0 0 0 73.78 18.66
  Q 78.47 12.78 85.13 9.29
  Q 85.80 8.94 85.37 8.32
  L 81.56 2.79"
/>
<path stroke="#686868" vector-effect="non-scaling-stroke" d="
  M 84.81 2.91
  A 0.30 0.30 0.0 0 0 84.40 3.32
  L 86.96 7.24
  A 1.05 1.01 78.7 0 0 87.58 7.67
  Q 89.10 8.04 90.36 7.31
  Q 91.02 6.92 90.38 6.51
  L 84.81 2.91"
/>
<path stroke="#423e3e" vector-effect="non-scaling-stroke" d="
  M 87.52 10.64
  Q 80.90 12.91 75.73 19.65"
/>
<path stroke="#242121" vector-effect="non-scaling-stroke" d="
  M 75.73 19.65
  Q 71.72 24.98 69.92 32.48"
/>
<path stroke="#423e3e" vector-effect="non-scaling-stroke" d="
  M 69.92 32.48
  Q 74.01 41.43 82.02 43.08"
/>
<path stroke="#686868" vector-effect="non-scaling-stroke" d="
  M 82.02 43.08
  Q 101.57 32.61 117.44 46.96
  Q 117.81 47.30 118.31 47.18
  Q 120.46 46.63 121.97 45.43"
/>
<path stroke="#4d4d4d" vector-effect="non-scaling-stroke" d="
  M 121.97 45.43
  Q 130.37 43.05 128.65 35.10"
/>
<path stroke="#423e3e" vector-effect="non-scaling-stroke" d="
  M 128.65 35.10
  Q 128.82 30.08 126.39 25.64"
/>
<path stroke="#686868" vector-effect="non-scaling-stroke" d="
  M 126.39 25.64
  Q 119.69 11.53 103.88 8.76"
/>
<path stroke="#4d4d4d" vector-effect="non-scaling-stroke" d="
  M 103.88 8.76
  Q 95.69 6.85 87.52 10.64"
/>
<path stroke="#b5b5b5" vector-effect="non-scaling-stroke" d="
  M 103.88 8.76
  Q 104.08 10.67 106.94 11.06
  Q 107.79 11.18 107.47 11.93"
/>
<path stroke="#cbcaca" vector-effect="non-scaling-stroke" d="
  M 107.47 11.93
  Q 106.42 12.29 104.83 14.08
  Q 103.27 15.85 99.05 17.75
  Q 98.28 18.10 98.50 19.21"
/>
<path stroke="#4d4d4d" vector-effect="non-scaling-stroke" d="
  M 98.50 19.21
  Q 97.66 19.17 97.68 20.54"
/>
<path stroke="#cbcaca" vector-effect="non-scaling-stroke" d="
  M 97.68 20.54
  L 97.45 19.74
  Q 97.31 19.28 96.85 19.39
  Q 87.37 21.75 79.25 26.20"
/>
<path stroke="#8f8b8b" vector-effect="non-scaling-stroke" d="
  M 79.25 26.20
  Q 78.34 25.72 78.49 24.27"
/>
<path stroke="#797979" vector-effect="non-scaling-stroke" d="
  M 78.49 24.27
  L 82.32 21.03
  A 1.44 1.43 -65.8 0 0 81.36 18.50
  L 80.31 18.53"
/>
<path stroke="#8f8b8b" vector-effect="non-scaling-stroke" d="
  M 80.31 18.53
  Q 80.00 17.44 80.94 16.69
  Q 83.63 14.52 87.52 10.64"
/>
<path stroke="#686868" vector-effect="non-scaling-stroke" d="
  M 109.96 17.85
  C 106.22 18.90 107.94 26.92 112.49 23.81"
/>
<path stroke="#686868" vector-effect="non-scaling-stroke" d="
  M 98.86 19.45
  C 101.32 24.30 108.38 22.03 105.69 17.92"
/>
<path stroke="#aaa5a5" vector-effect="non-scaling-stroke" d="
  M 126.39 25.64
  L 125.09 26.33"
/>
<path stroke="#b5b5b5" vector-effect="non-scaling-stroke" d="
  M 125.09 26.33
  L 123.90 25.04"
/>
<path stroke="#686868" vector-effect="non-scaling-stroke" d="
  M 123.90 25.04
  Q 123.25 18.46 116.69 16.97"
/>
<path stroke="#b5b5b5" vector-effect="non-scaling-stroke" d="
  M 116.69 16.97
  Q 114.44 13.14 108.58 12.42"
/>
<path stroke="#e6e5e5" vector-effect="non-scaling-stroke" d="
  M 108.58 12.42
  Q 108.27 12.51 107.47 11.93"
/>
<path stroke="#cbcaca" vector-effect="non-scaling-stroke" d="
  M 108.58 12.42
  Q 109.64 13.90 109.89 15.32
  A 1.69 1.67 -72.2 0 0 110.32 16.17
  C 116.29 22.51 124.76 29.47 125.83 38.75"
/>
<path stroke="#e6e5e5" vector-effect="non-scaling-stroke" d="
  M 125.83 38.75
  C 121.35 40.74 116.59 42.11 111.85 40.31
  C 108.00 38.86 104.90 37.80 100.58 37.76
  C 91.31 37.67 83.69 35.40 78.86 26.90"
/>
<path stroke="#bfbbbb" vector-effect="non-scaling-stroke" d="
  M 78.86 26.90
  Q 79.06 26.55 79.25 26.20"
/>
<path stroke="#7e7d7d" vector-effect="non-scaling-stroke" d="
  M 97.68 20.54
  C 97.77 24.15 103.20 24.45 105.63 23.47
  A 0.61 0.61 0.0 0 1 106.34 23.67
  Q 109.12 27.43 113.39 25.62
  A 0.90 0.90 0.0 0 0 113.83 24.35
  Q 113.39 23.55 112.49 23.81"
/>
<path stroke="#e6e5e5" vector-effect="non-scaling-stroke" d="
  M 112.49 23.81
  L 109.96 17.85"
/>
<path stroke="#7e7d7d" vector-effect="non-scaling-stroke" d="
  M 109.96 17.85
  Q 109.40 15.56 105.13 15.50
  A 0.72 0.72 0.0 0 0 104.59 16.70
  L 105.69 17.92"
/>
<path stroke="#e6e5e5" vector-effect="non-scaling-stroke" d="
  M 105.69 17.92
  Q 103.79 20.69 98.86 19.45"
/>
<path stroke="#7e7d7d" vector-effect="non-scaling-stroke" d="
  M 98.86 19.45
  L 98.50 19.21"
/>
<path stroke="#6d6969" vector-effect="non-scaling-stroke" d="
  M 78.49 24.27
  Q 78.23 24.18 77.67 24.32"
/>
<path stroke="#4f4d4d" vector-effect="non-scaling-stroke" d="
  M 77.67 24.32
  L 78.94 19.02"
/>
<path stroke="#6d6969" vector-effect="non-scaling-stroke" d="
  M 80.31 18.53
  Q 79.41 19.01 78.94 19.02"
/>
<path stroke="#655f5f" vector-effect="non-scaling-stroke" d="
  M 78.94 19.02
  Q 76.27 20.76 75.73 19.65"
/>
<path stroke="#aaa5a5" vector-effect="non-scaling-stroke" d="
  M 78.86 26.90
  Q 73.94 35.61 82.02 43.08"
/>
<path stroke="#4d4d4d" vector-effect="non-scaling-stroke" d="
  M 116.69 16.97
  Q 112.81 16.61 113.23 18.47
  A 0.76 0.75 -9.4 0 0 114.05 19.05
  Q 120.47 18.42 122.08 24.36
  A 0.91 0.90 -1.0 0 0 122.76 25.01
  Q 123.36 25.14 123.90 25.04"
/>
<path stroke="#8f8b8b" vector-effect="non-scaling-stroke" d="
  M 125.09 26.33
  Q 125.95 30.84 128.65 35.10"
/>
<path stroke="#b5b5b5" vector-effect="non-scaling-stroke" d="
  M 121.97 45.43
  Q 124.81 42.37 125.83 38.75"
/>
<path stroke="#655f5f" vector-effect="non-scaling-stroke" d="
  M 77.67 24.32
  L 69.92 32.48"
/>
<path stroke="#686868" vector-effect="non-scaling-stroke" d="
  M 116.57 11.88
  Q 119.33 12.45 121.01 9.97
  Q 121.54 9.20 120.63 9.39
  L 116.56 10.27
  A 0.82 0.82 0.0 0 0 116.57 11.88"
/>
<path stroke="#713133" vector-effect="non-scaling-stroke" d="
  M 125.56 11.00
  A 0.66 0.66 0.0 0 0 124.77 10.51
  Q 122.14 11.14 120.46 13.18
  A 0.78 0.77 -46.0 0 0 120.47 14.18
  L 126.10 20.68
  Q 126.47 21.11 126.49 20.55
  Q 126.67 15.72 125.56 11.00"
/>
<path stroke="#713133" vector-effect="non-scaling-stroke" d="
  M 100.75 41.76
  Q 105.57 44.46 111.20 45.15
  Q 111.84 45.23 111.34 44.84
  Q 107.08 41.46 101.52 41.24"
/>
<path stroke="#242121" vector-effect="non-scaling-stroke" d="
  M 101.52 41.24
  Q 100.63 40.81 99.69 40.94
  Q 99.29 41.00 99.51 41.33
  Q 99.76 41.70 100.75 41.76"
/>
<path stroke="#945254" vector-effect="non-scaling-stroke" d="
  M 101.52 41.24
  Q 100.92 41.17 100.75 41.76"
/>
<path stroke="#713133" vector-effect="non-scaling-stroke" d="
  M 83.54 45.29
  C 86.29 44.66 92.66 43.55 94.06 41.47
  Q 94.47 40.86 93.74 40.95
  Q 88.04 41.62 83.37 44.90
  Q 82.48 45.53 83.54 45.29"
/>
<path stroke="#804927" vector-effect="non-scaling-stroke" d="
  M 92.29 48.24
  Q 93.04 50.99 95.55 52.35
  A 0.71 0.71 0.0 0 0 96.60 51.70
  L 96.42 46.50"
/>
<path stroke="#686868" vector-effect="non-scaling-stroke" d="
  M 96.42 46.50
  Q 97.25 45.80 98.07 46.31"
/>
<path stroke="#804927" vector-effect="non-scaling-stroke" d="
  M 98.07 46.31
  L 98.46 51.56
  Q 98.50 52.09 99.02 52.25
  Q 99.74 52.46 100.76 51.40"
/>
<path stroke="#686868" vector-effect="non-scaling-stroke" d="
  M 100.76 51.40
  C 106.61 44.60 94.47 37.57 92.29 48.24"
/>
<path stroke="#e8b08e" vector-effect="non-scaling-stroke" d="
  M 100.76 51.40
  C 100.32 49.52 100.91 45.91 98.07 46.31"
/>
<path stroke="#e8b08e" vector-effect="non-scaling-stroke" d="
  M 96.42 46.50
  Q 96.01 45.77 95.00 46.32
  C 93.78 46.98 94.02 47.97 92.29 48.24"
/>
<path stroke="#686868" vector-effect="non-scaling-stroke" d="
  M 101.71 53.41
  C 95.29 56.01 90.36 52.89 90.80 46.06
  Q 90.84 45.46 90.26 45.62
  L 83.65 47.41"
/>
<path stroke="#423e3e" vector-effect="non-scaling-stroke" d="
  M 83.65 47.41
  Q 70.43 52.18 64.49 64.34"
/>
<path stroke="#242121" vector-effect="non-scaling-stroke" d="
  M 64.49 64.34
  Q 62.99 66.28 62.73 68.94"
/>
<path stroke="#423e3e" vector-effect="non-scaling-stroke" d="
  M 62.73 68.94
  Q 61.90 69.98 62.24 71.09"
/>
<path stroke="#242121" vector-effect="non-scaling-stroke" d="
  M 62.24 71.09
  Q 60.89 73.01 60.72 74.99"
/>
<path stroke="#686868" vector-effect="non-scaling-stroke" d="
  M 60.72 74.99
  Q 58.32 83.24 62.78 89.39
  Q 63.27 90.07 63.27 89.23
  L 63.24 86.25
  A 0.51 0.51 0.0 0 1 64.21 86.04
  L 65.78 89.57
  A 0.50 0.49 33.6 0 0 66.73 89.38
  L 66.89 77.36"
/>
<path stroke="#242121" vector-effect="non-scaling-stroke" d="
  M 66.89 77.36
  L 67.60 73.52"
/>
<path stroke="#423e3e" vector-effect="non-scaling-stroke" d="
  M 67.60 73.52
  L 67.87 71.36"
/>
<path stroke="#242121" vector-effect="non-scaling-stroke" d="
  M 67.87 71.36
  L 69.41 67.05"
/>
<path stroke="#423e3e" vector-effect="non-scaling-stroke" d="
  M 69.41 67.05
  Q 72.21 58.61 77.24 51.49
  Q 77.58 51.01 78.09 51.29
  L 78.46 51.49
  Q 79.00 51.78 78.67 52.30
  Q 62.74 77.45 71.43 106.53"
/>
<path stroke="#242121" vector-effect="non-scaling-stroke" d="
  M 71.43 106.53
  L 72.78 111.94"
/>
<path stroke="#423e3e" vector-effect="non-scaling-stroke" d="
  M 72.78 111.94
  Q 73.03 113.53 73.66 114.08"
/>
<path stroke="#242121" vector-effect="non-scaling-stroke" d="
  M 73.66 114.08
  L 74.30 118.64"
/>
<path stroke="#686868" vector-effect="non-scaling-stroke" d="
  M 74.30 118.64
  Q 74.12 123.27 73.96 126.99
  Q 73.95 127.32 74.31 127.47
  Q 74.54 127.56 74.68 127.37
  L 76.17 125.35
  A 0.60 0.60 0.0 0 1 77.23 125.84
  C 76.78 127.78 75.56 131.08 78.62 131.72
  Q 79.28 131.86 79.27 131.19
  Q 79.24 128.85 80.39 126.94
  A 0.73 0.73 0.0 0 1 81.74 127.44
  L 81.15 131.14
  A 0.56 0.56 0.0 0 0 81.81 131.78
  Q 84.13 131.33 85.17 129.99"
/>
<path stroke="#7e7d7d" vector-effect="non-scaling-stroke" d="
  M 85.17 129.99
  Q 90.67 125.55 89.63 118.47"
/>
<path stroke="#2c2c2c" vector-effect="non-scaling-stroke" d="
  M 89.63 118.47
  L 89.01 113.94"
/>
<path stroke="#423e3e" vector-effect="non-scaling-stroke" d="
  M 89.01 113.94
  Q 89.16 112.83 88.70 112.27"
/>
<path stroke="#242121" vector-effect="non-scaling-stroke" d="
  M 88.70 112.27
  L 88.02 107.75"
/>
<path stroke="#423e3e" vector-effect="non-scaling-stroke" d="
  M 88.02 107.75
  Q 88.04 106.81 87.70 106.08
  A 1.18 1.16 -1.7 0 0 87.05 105.48
  Q 77.17 101.76 72.26 93.26
  Q 71.69 92.29 73.09 91.76
  A 0.61 0.60 -26.3 0 1 73.81 92.00
  Q 76.31 96.13 80.66 99.59"
/>
<path stroke="#686868" vector-effect="non-scaling-stroke" d="
  M 80.66 99.59
  Q 96.31 110.58 113.64 100.22"
/>
<path stroke="#4d4d4d" vector-effect="non-scaling-stroke" d="
  M 113.64 100.22
  Q 118.14 96.82 120.97 91.99
  A 0.62 0.62 0.0 0 1 121.87 91.81
  L 122.20 92.05
  Q 122.71 92.42 122.36 92.95
  L 118.96 98.13"
/>
<path stroke="#423e3e" vector-effect="non-scaling-stroke" d="
  M 118.96 98.13
  Q 113.98 103.15 107.67 105.49
  Q 107.18 105.67 107.08 106.19
  L 106.80 107.74"
/>
<path stroke="#242121" vector-effect="non-scaling-stroke" d="
  M 106.80 107.74
  L 106.02 112.66"
/>
<path stroke="#4d4d4d" vector-effect="non-scaling-stroke" d="
  M 106.02 112.66
  L 106.03 113.74"
/>
<path stroke="#242121" vector-effect="non-scaling-stroke" d="
  M 106.03 113.74
  Q 105.29 115.79 105.46 118.24"
/>
<path stroke="#686868" vector-effect="non-scaling-stroke" d="
  M 105.46 118.24
  Q 103.84 126.94 112.01 131.72
  A 1.13 1.13 0.0 0 0 113.68 130.50
  L 112.92 127.09
  Q 112.81 126.57 113.34 126.59
  Q 114.11 126.62 114.61 127.45
  Q 115.55 129.02 115.77 131.35
  Q 115.82 131.88 116.34 131.78
  Q 117.62 131.53 118.10 130.25
  Q 118.25 129.84 118.23 129.40
  L 118.06 125.08"
/>
<path stroke="#7e7d7d" vector-effect="non-scaling-stroke" d="
  M 118.06 125.08
  Q 119.62 126.10 120.03 127.21
  A 0.51 0.50 32.2 0 0 121.01 126.99
  L 120.31 120.15"
/>
<path stroke="#4d4d4d" vector-effect="non-scaling-stroke" d="
  M 120.31 120.15
  L 123.85 106.55"
/>
<path stroke="#686868" vector-effect="non-scaling-stroke" d="
  M 123.85 106.55
  C 128.66 87.35 127.18 69.30 116.45 52.76"
/>
<path stroke="#4d4d4d" vector-effect="non-scaling-stroke" d="
  M 116.45 52.76
  Q 116.05 52.10 116.03 51.68
  Q 116.01 50.96 116.63 51.30
  C 120.48 53.38 124.30 63.49 125.39 66.88"
/>
<path stroke="#2c2c2c" vector-effect="non-scaling-stroke" d="
  M 125.39 66.88
  L 126.70 71.14"
/>
<path stroke="#4d4d4d" vector-effect="non-scaling-stroke" d="
  M 126.70 71.14
  L 127.33 74.01"
/>
<path stroke="#2c2c2c" vector-effect="non-scaling-stroke" d="
  M 127.33 74.01
  L 127.98 77.31"
/>
<path stroke="#686868" vector-effect="non-scaling-stroke" d="
  M 127.98 77.31
  L 128.24 89.45
  A 0.48 0.48 0.0 0 0 129.15 89.65
  L 131.14 85.54"
/>
<path stroke="#7e7d7d" vector-effect="non-scaling-stroke" d="
  M 131.14 85.54
  Q 131.75 87.15 131.54 88.95
  Q 131.40 90.22 132.14 89.18
  Q 136.22 83.39 134.29 75.43"
/>
<path stroke="#2c2c2c" vector-effect="non-scaling-stroke" d="
  M 134.29 75.43
  L 133.40 71.31"
/>
<path stroke="#4d4d4d" vector-effect="non-scaling-stroke" d="
  M 133.40 71.31
  L 130.49 64.51"
/>
<path stroke="#686868" vector-effect="non-scaling-stroke" d="
  M 130.49 64.51
  Q 126.83 56.95 120.53 52.12"
/>
<path stroke="#4d4d4d" vector-effect="non-scaling-stroke" d="
  M 120.53 52.12
  L 111.21 47.19"
/>
<path stroke="#7e7d7d" vector-effect="non-scaling-stroke" d="
  M 111.21 47.19
  L 104.77 45.48
  Q 104.32 45.37 104.33 45.83
  Q 104.39 49.89 101.71 53.41"
/>
<path stroke="#cbcaca" vector-effect="non-scaling-stroke" d="
  M 111.21 47.19
  Q 111.53 50.02 111.99 50.69
  Q 122.82 66.51 120.58 85.17
  Q 119.75 92.14 115.12 96.89"
/>
<path stroke="#e6e5e5" vector-effect="non-scaling-stroke" d="
  M 115.12 96.89
  C 111.52 98.08 107.90 99.81 104.55 100.38
  C 85.50 103.59 77.04 89.48 77.35 72.64
  C 77.52 63.38 80.43 54.73 87.99 49.08
  A 0.66 0.65 -25.5 0 1 89.02 49.44
  C 89.37 50.76 89.64 52.04 90.52 53.12
  Q 96.12 59.93 101.71 53.41"
/>
<path stroke="#b5b5b5" vector-effect="non-scaling-stroke" d="
  M 120.53 52.12
  Q 119.96 52.25 119.75 52.71
  A 0.77 0.76 -56.8 0 0 119.93 53.58
  C 122.85 56.25 125.55 58.67 127.42 62.23
  Q 128.52 64.33 130.49 64.51"
/>
<path stroke="#797979" vector-effect="non-scaling-stroke" d="
  M 133.40 71.31
  L 127.33 74.01"
/>
<path stroke="#797979" vector-effect="non-scaling-stroke" d="
  M 126.70 71.14
  Q 129.46 71.17 130.72 69.37
  Q 131.04 68.91 130.84 68.40
  L 130.00 66.22
  Q 129.81 65.70 129.27 65.85
  L 125.39 66.88"
/>
<path stroke="#b5b5b5" vector-effect="non-scaling-stroke" d="
  M 116.45 52.76
  Q 116.23 52.68 116.01 52.76
  A 0.48 0.47 68.5 0 0 115.74 53.40
  C 117.53 57.66 120.08 61.96 121.40 65.99
  Q 124.25 74.69 124.90 83.82
  C 125.41 91.00 123.93 98.32 122.40 105.55
  A 0.81 0.80 7.8 0 0 123.14 106.51
  L 123.85 106.55"
/>
<path stroke="#cbcaca" vector-effect="non-scaling-stroke" d="
  M 120.31 120.15
  Q 120.39 118.92 119.21 118.89"
/>
<path stroke="#797979" vector-effect="non-scaling-stroke" d="
  M 119.21 118.89
  L 120.15 114.99
  Q 120.27 114.48 119.77 114.64
  Q 115.25 116.09 110.08 115.15"
/>
<path stroke="#716e6e" vector-effect="non-scaling-stroke" d="
  M 110.08 115.15
  L 106.03 113.74"
/>
<path stroke="#716e6e" vector-effect="non-scaling-stroke" d="
  M 106.02 112.66
  L 110.95 113.30"
/>
<path stroke="#797979" vector-effect="non-scaling-stroke" d="
  M 110.95 113.30
  C 114.37 114.25 117.07 113.05 120.23 112.21
  Q 120.89 112.03 121.15 111.66
  Q 121.49 111.15 121.21 110.62
  Q 120.99 110.20 121.13 109.75
  L 121.60 108.26
  Q 121.85 107.49 121.06 107.71
  Q 116.86 108.93 112.34 108.72"
/>
<path stroke="#8f8b8b" vector-effect="non-scaling-stroke" d="
  M 112.34 108.72
  Q 113.98 105.52 116.08 102.75
  C 117.21 101.26 118.97 100.77 118.96 98.13"
/>
<path stroke="#b5b5b5" vector-effect="non-scaling-stroke" d="
  M 115.12 96.89
  L 113.64 100.22"
/>
<path stroke="#aaa5a5" vector-effect="non-scaling-stroke" d="
  M 80.66 99.59
  Q 75.30 91.75 74.43 85.06
  Q 72.98 73.87 76.69 62.89
  Q 77.35 60.92 80.37 55.31
  Q 82.42 51.49 83.65 47.41"
/>
<path stroke="#4f4d4d" vector-effect="non-scaling-stroke" d="
  M 110.08 115.15
  Q 111.66 118.12 109.94 119.35"
/>
<path stroke="#8c8989" vector-effect="non-scaling-stroke" d="
  M 109.94 119.35
  L 105.46 118.24"
/>
<path stroke="#6d6969" vector-effect="non-scaling-stroke" d="
  M 112.34 108.72
  Q 112.08 108.72 111.90 108.81"
/>
<path stroke="#655f5f" vector-effect="non-scaling-stroke" d="
  M 111.90 108.81
  L 106.80 107.74"
/>
<path stroke="#a9a9a9" vector-effect="non-scaling-stroke" d="
  M 119.21 118.89
  Q 115.29 120.07 111.40 119.75"
/>
<path stroke="#949393" vector-effect="non-scaling-stroke" d="
  M 111.40 119.75
  Q 112.38 119.60 109.94 119.35"
/>
<path stroke="#a9a9a9" vector-effect="non-scaling-stroke" d="
  M 134.29 75.43
  L 131.53 76.39"
/>
<path stroke="#949393" vector-effect="non-scaling-stroke" d="
  M 131.53 76.39
  Q 129.69 77.34 127.98 77.31"
/>
<path stroke="#4f4d4d" vector-effect="non-scaling-stroke" d="
  M 111.90 108.81
  L 110.95 113.30"
/>
<path stroke="#655f5f" vector-effect="non-scaling-stroke" d="
  M 88.02 107.75
  Q 80.10 110.36 71.43 106.53"
/>
<path stroke="#655f5f" vector-effect="non-scaling-stroke" d="
  M 69.41 67.05
  Q 66.42 67.02 64.49 64.34"
/>
<path stroke="#e6e5e5" vector-effect="non-scaling-stroke" d="
  M 111.40 119.75
  Q 111.60 126.46 118.06 125.08"
/>
<path stroke="#e6e5e5" vector-effect="non-scaling-stroke" d="
  M 131.14 85.54
  L 131.53 76.39"
/>
<path stroke="#655f5f" vector-effect="non-scaling-stroke" d="
  M 67.87 71.36
  L 62.73 68.94"
/>
<path stroke="#655f5f" vector-effect="non-scaling-stroke" d="
  M 88.70 112.27
  C 82.33 114.73 78.54 113.12 72.78 111.94"
/>
<path stroke="#655f5f" vector-effect="non-scaling-stroke" d="
  M 67.60 73.52
  Q 64.58 73.01 62.24 71.09"
/>
<path stroke="#6d6969" vector-effect="non-scaling-stroke" d="
  M 89.01 113.94
  L 83.52 115.41"
/>
<path stroke="#655f5f" vector-effect="non-scaling-stroke" d="
  M 83.52 115.41
  Q 78.72 115.96 73.66 114.08"
/>
<path stroke="#8c8989" vector-effect="non-scaling-stroke" d="
  M 66.89 77.36
  Q 63.62 77.02 60.72 74.99"
/>
<path stroke="#a9a9a9" vector-effect="non-scaling-stroke" d="
  M 89.63 118.47
  L 86.44 119.29"
/>
<path stroke="#949393" vector-effect="non-scaling-stroke" d="
  M 86.44 119.29
  Q 85.55 118.85 85.72 119.15"
/>
<path stroke="#4f4d4d" vector-effect="non-scaling-stroke" d="
  M 85.72 119.15
  Q 85.64 115.04 83.52 115.41"
/>
<path stroke="#8c8989" vector-effect="non-scaling-stroke" d="
  M 85.72 119.15
  Q 80.45 120.45 74.30 118.64"
/>
<path stroke="#e6e5e5" vector-effect="non-scaling-stroke" d="
  M 85.17 129.99
  L 86.44 119.29"
/>
<path stroke="#4d4d4d" vector-effect="non-scaling-stroke" d="
  M 95.27 118.56
  C 95.22 124.24 91.94 130.44 89.25 136.25"
/>
<path stroke="#686868" vector-effect="non-scaling-stroke" d="
  M 89.25 136.25
  C 88.40 138.62 85.28 146.99 89.24 147.76
  C 92.39 148.37 92.86 143.98 93.39 141.50"
/>
<path stroke="#7e7d7d" vector-effect="non-scaling-stroke" d="
  M 93.39 141.50
  L 94.36 138.16"
/>
<path stroke="#4d4d4d" vector-effect="non-scaling-stroke" d="
  M 94.36 138.16
  C 97.60 129.56 101.40 123.56 100.35 113.24"
/>
<path stroke="#423e3e" vector-effect="non-scaling-stroke" d="
  M 100.35 113.24
  L 99.78 107.74
  Q 99.73 107.25 99.23 107.25
  L 94.80 107.25
  Q 94.38 107.25 94.41 107.68
  L 95.27 118.56"
/>
<path stroke="#8f8b8b" vector-effect="non-scaling-stroke" d="
  M 100.35 113.24
  L 97.86 112.97
  A 0.97 0.97 0.0 0 0 96.89 113.50
  Q 96.42 114.44 96.49 115.50
  A 1.25 1.23 62.3 0 1 96.23 116.37
  Q 95.54 117.28 95.27 118.56"
/>
<path stroke="#cbcaca" vector-effect="non-scaling-stroke" d="
  M 94.36 138.16
  Q 93.42 135.92 90.57 136.13"
/>
<path stroke="#b5b5b5" vector-effect="non-scaling-stroke" d="
  M 90.57 136.13
  Q 89.97 136.35 89.25 136.25"
/>
<path stroke="#e6e5e5" vector-effect="non-scaling-stroke" d="
  M 93.39 141.50
  Q 89.91 142.32 90.57 136.13"
/>
<path stroke="#d99675" vector-effect="non-scaling-stroke" d="
  M 62.92 97.47
  Q 63.20 96.24 62.05 95.45"
/>
<path stroke="#d7cbcc" vector-effect="non-scaling-stroke" d="
  M 62.05 95.45
  Q 61.65 93.84 58.71 93.05"
/>
<path stroke="#d99675" vector-effect="non-scaling-stroke" d="
  M 58.71 93.05
  C 47.60 79.93 58.88 60.32 69.36 51.06"
/>
<path stroke="#d7cbcc" vector-effect="non-scaling-stroke" d="
  M 69.36 51.06
  Q 71.99 50.37 72.04 48.39"
/>
<path stroke="#d99675" vector-effect="non-scaling-stroke" d="
  M 72.04 48.39
  C 76.34 47.89 74.14 43.03 71.42 43.91"
/>
<path stroke="#d7cbcc" vector-effect="non-scaling-stroke" d="
  M 71.42 43.91
  C 71.01 42.61 69.84 41.67 69.14 40.92
  Q 67.95 39.64 67.48 40.37"
/>
<path stroke="#d99675" vector-effect="non-scaling-stroke" d="
  M 67.48 40.37
  C 65.36 35.93 62.72 33.87 65.06 28.54"
/>
<path stroke="#d7cbcc" vector-effect="non-scaling-stroke" d="
  M 65.06 28.54
  Q 66.79 24.45 65.29 21.88"
/>
<path stroke="#4d4d4d" vector-effect="non-scaling-stroke" d="
  M 99.07 14.50
  C 96.05 9.97 89.48 11.34 86.57 14.72
  A 0.62 0.61 7.1 0 0 87.31 15.67
  C 91.26 13.71 94.09 12.03 97.98 15.45
  A 0.73 0.73 0.0 0 0 99.07 14.50"
/>
<path stroke="#fdc6a4" vector-effect="non-scaling-stroke" d="
  M 156.85 18.54
  L 169.06 65.13
  A 0.12 0.12 0.0 0 0 169.30 65.11
  L 169.61 61.34"
/>
<path stroke="#fdc6a4" vector-effect="non-scaling-stroke" d="
  M 204.71 28.46
  L 183.41 124.44
  A 1.28 1.28 0.0 0 1 182.04 125.44
  L 162.00 123.45"
/>
<path stroke="#fdc6a4" vector-effect="non-scaling-stroke" d="
  M 144.59 58.94
  L 143.00 49.92
  A 0.30 0.30 0.0 0 0 142.41 49.92
  L 136.93 78.68"
/>
<path stroke="#fdc6a4" vector-effect="non-scaling-stroke" d="
  M 135.38 71.03
  L 141.18 40.68
  Q 141.29 40.08 141.90 40.18
  L 144.19 40.56
  A 0.75 0.75 0.0 0 1 144.81 41.32
  Q 144.69 44.72 146.53 47.60"
/>
<path stroke="#fdc6a4" vector-effect="non-scaling-stroke" d="
  M 161.39 120.07
  L 179.72 121.95
  Q 180.66 122.04 180.86 121.13
  L 201.84 27.12"
/>
<path stroke="#fdc6a4" vector-effect="non-scaling-stroke" d="
  M 171.95 71.41
  Q 171.24 72.08 171.06 72.78
  A 1.66 1.51 -47.6 0 1 168.01 73.07
  L 153.33 17.92"
/>
<path stroke="#fdc6a4" vector-effect="non-scaling-stroke" d="
  M 65.06 28.54
  C 62.96 23.31 56.99 16.62 51.04 17.24"
/>
<path stroke="#fdc6a4" vector-effect="non-scaling-stroke" d="
  M 22.91 122.78
  L 46.32 117.82
  A 0.63 0.62 79.8 0 0 46.81 117.11
  L 43.51 97.08
  Q 43.43 96.61 43.89 96.51
  L 58.71 93.05"
/>
<path stroke="#fdc6a4" vector-effect="non-scaling-stroke" d="
  M 62.05 95.45
  L 47.44 98.97
  Q 46.99 99.07 47.07 99.53
  L 50.31 119.48
  A 0.89 0.88 -10.5 0 1 49.61 120.49
  L 23.19 125.89"
/>
<path stroke="#fdc6a4" vector-effect="non-scaling-stroke" d="
  M 67.48 40.37
  L 69.36 51.06"
/>
<path stroke="#fdc6a4" vector-effect="non-scaling-stroke" d="
  M 35.84 31.37
  C 32.61 25.00 24.96 26.49 19.23 29.01
  Q 18.81 29.20 18.77 29.66
  Q 18.64 31.44 18.86 33.18
  Q 22.14 59.24 25.80 85.24
  Q 26.22 88.20 28.05 89.89
  A 1.07 1.06 -30.4 0 0 29.03 90.14
  Q 32.08 89.38 33.50 90.26"
/>
<path stroke="#fdc6a4" vector-effect="non-scaling-stroke" d="
  M 31.37 30.71
  Q 27.15 29.29 22.05 31.16
  Q 21.61 31.32 21.68 31.79
  L 28.99 85.77
  A 1.04 1.03 10.2 0 0 29.54 86.55
  Q 31.07 87.37 32.66 86.31"
/>
<path stroke="#fdc6a4" vector-effect="non-scaling-stroke" d="
  M 71.42 43.91
  L 72.04 48.39"
/>
<path stroke="#fdc6a4" vector-effect="non-scaling-stroke" d="
  M 122.44 117.48
  L 128.52 118.43
  A 1.12 1.12 0.0 0 0 129.80 117.52
  L 134.82 89.03"
/>
<path stroke="#fdc6a4" vector-effect="non-scaling-stroke" d="
  M 123.21 114.76
  L 126.17 114.81
  Q 127.18 114.83 127.37 113.84
  L 131.36 92.57"
/>
</g>
<path fill="#000000" d="
  M 81.07 0.00
  L 82.10 0.00
  Q 86.99 1.91 91.55 5.02
  C 95.92 7.99 100.71 6.04 105.34 7.19
  Q 108.72 8.04 112.03 9.22
  A 1.85 1.78 48.1 0 0 113.00 9.29
  C 116.96 8.48 123.31 6.53 126.84 8.90
  L 128.71 15.85
  Q 127.68 22.47 129.50 28.56
  Q 130.99 34.15 131.10 40.40
  L 128.71 43.75
  L 124.55 47.12
  Q 122.05 47.09 120.18 48.75
  Q 119.79 49.11 120.10 49.54
  Q 121.81 51.87 123.71 51.49
  Q 124.65 54.47 126.60 54.35
  Q 127.06 57.04 128.94 57.49
  L 135.38 71.03
  L 136.93 78.68
  Q 136.74 84.12 134.82 89.03
  L 131.36 92.57
  L 128.66 93.89
  Q 128.17 94.12 128.05 94.65
  L 123.21 114.76
  Q 122.53 116.01 122.44 117.48
  Q 122.01 118.45 122.41 119.73
  C 122.34 122.07 123.11 124.67 122.58 126.77
  Q 120.76 134.04 112.05 133.79
  C 100.40 127.87 103.14 117.33 104.82 107.00
  A 0.66 0.66 0.0 0 0 103.95 106.27
  L 102.05 106.92
  A 0.61 0.59 -14.8 0 0 101.65 107.59
  Q 103.56 118.27 100.71 128.33
  Q 97.99 133.25 96.12 138.25
  C 94.91 141.45 94.93 145.67 92.27 149.10
  A 1.02 1.02 0.0 0 1 91.43 149.49
  L 87.37 149.33
  C 82.64 145.26 87.99 134.58 90.50 128.95
  Q 95.22 118.40 92.27 107.27
  Q 91.95 106.07 90.54 106.65
  Q 90.10 106.83 90.16 107.31
  C 91.10 113.98 93.50 124.53 88.21 129.72
  Q 85.97 131.92 85.31 132.87
  L 78.92 134.14
  Q 73.72 131.91 72.36 127.62
  C 71.36 124.46 73.21 119.54 72.31 116.97
  Q 68.59 106.27 66.88 94.95
  Q 66.80 94.44 66.34 94.19
  C 48.62 84.59 62.88 57.91 74.65 49.67
  C 76.29 48.52 77.27 46.92 78.76 45.65
  A 0.85 0.84 -51.3 0 0 78.61 44.26
  C 75.24 42.48 66.40 35.53 68.01 31.00
  Q 69.82 25.89 70.91 20.59
  Q 73.02 10.26 78.62 0.80
  L 81.07 0.00
  Z
  M 81.56 2.79
  A 1.04 1.03 43.6 0 0 79.83 2.83
  Q 75.36 10.13 73.44 18.49
  A 0.20 0.19 71.0 0 0 73.78 18.66
  Q 78.47 12.78 85.13 9.29
  Q 85.80 8.94 85.37 8.32
  L 81.56 2.79
  Z
  M 84.81 2.91
  A 0.30 0.30 0.0 0 0 84.40 3.32
  L 86.96 7.24
  A 1.05 1.01 78.7 0 0 87.58 7.67
  Q 89.10 8.04 90.36 7.31
  Q 91.02 6.92 90.38 6.51
  L 84.81 2.91
  Z
  M 87.52 10.64
  Q 80.90 12.91 75.73 19.65
  Q 71.72 24.98 69.92 32.48
  Q 74.01 41.43 82.02 43.08
  Q 101.57 32.61 117.44 46.96
  Q 117.81 47.30 118.31 47.18
  Q 120.46 46.63 121.97 45.43
  Q 130.37 43.05 128.65 35.10
  Q 128.82 30.08 126.39 25.64
  Q 119.69 11.53 103.88 8.76
  Q 95.69 6.85 87.52 10.64
  Z
  M 116.57 11.88
  Q 119.33 12.45 121.01 9.97
  Q 121.54 9.20 120.63 9.39
  L 116.56 10.27
  A 0.82 0.82 0.0 0 0 116.57 11.88
  Z
  M 125.56 11.00
  A 0.66 0.66 0.0 0 0 124.77 10.51
  Q 122.14 11.14 120.46 13.18
  A 0.78 0.77 -46.0 0 0 120.47 14.18
  L 126.10 20.68
  Q 126.47 21.11 126.49 20.55
  Q 126.67 15.72 125.56 11.00
  Z
  M 100.75 41.76
  Q 105.57 44.46 111.20 45.15
  Q 111.84 45.23 111.34 44.84
  Q 107.08 41.46 101.52 41.24
  Q 100.63 40.81 99.69 40.94
  Q 99.29 41.00 99.51 41.33
  Q 99.76 41.70 100.75 41.76
  Z
  M 83.54 45.29
  C 86.29 44.66 92.66 43.55 94.06 41.47
  Q 94.47 40.86 93.74 40.95
  Q 88.04 41.62 83.37 44.90
  Q 82.48 45.53 83.54 45.29
  Z
  M 92.29 48.24
  Q 93.04 50.99 95.55 52.35
  A 0.71 0.71 0.0 0 0 96.60 51.70
  L 96.42 46.50
  Q 97.25 45.80 98.07 46.31
  L 98.46 51.56
  Q 98.50 52.09 99.02 52.25
  Q 99.74 52.46 100.76 51.40
  C 106.61 44.60 94.47 37.57 92.29 48.24
  Z
  M 101.71 53.41
  C 95.29 56.01 90.36 52.89 90.80 46.06
  Q 90.84 45.46 90.26 45.62
  L 83.65 47.41
  Q 70.43 52.18 64.49 64.34
  Q 62.99 66.28 62.73 68.94
  Q 61.90 69.98 62.24 71.09
  Q 60.89 73.01 60.72 74.99
  Q 58.32 83.24 62.78 89.39
  Q 63.27 90.07 63.27 89.23
  L 63.24 86.25
  A 0.51 0.51 0.0 0 1 64.21 86.04
  L 65.78 89.57
  A 0.50 0.49 33.6 0 0 66.73 89.38
  L 66.89 77.36
  L 67.60 73.52
  L 67.87 71.36
  L 69.41 67.05
  Q 72.21 58.61 77.24 51.49
  Q 77.58 51.01 78.09 51.29
  L 78.46 51.49
  Q 79.00 51.78 78.67 52.30
  Q 62.74 77.45 71.43 106.53
  L 72.78 111.94
  Q 73.03 113.53 73.66 114.08
  L 74.30 118.64
  Q 74.12 123.27 73.96 126.99
  Q 73.95 127.32 74.31 127.47
  Q 74.54 127.56 74.68 127.37
  L 76.17 125.35
  A 0.60 0.60 0.0 0 1 77.23 125.84
  C 76.78 127.78 75.56 131.08 78.62 131.72
  Q 79.28 131.86 79.27 131.19
  Q 79.24 128.85 80.39 126.94
  A 0.73 0.73 0.0 0 1 81.74 127.44
  L 81.15 131.14
  A 0.56 0.56 0.0 0 0 81.81 131.78
  Q 84.13 131.33 85.17 129.99
  Q 90.67 125.55 89.63 118.47
  L 89.01 113.94
  Q 89.16 112.83 88.70 112.27
  L 88.02 107.75
  Q 88.04 106.81 87.70 106.08
  A 1.18 1.16 -1.7 0 0 87.05 105.48
  Q 77.17 101.76 72.26 93.26
  Q 71.69 92.29 73.09 91.76
  A 0.61 0.60 -26.3 0 1 73.81 92.00
  Q 76.31 96.13 80.66 99.59
  Q 96.31 110.58 113.64 100.22
  Q 118.14 96.82 120.97 91.99
  A 0.62 0.62 0.0 0 1 121.87 91.81
  L 122.20 92.05
  Q 122.71 92.42 122.36 92.95
  L 118.96 98.13
  Q 113.98 103.15 107.67 105.49
  Q 107.18 105.67 107.08 106.19
  L 106.80 107.74
  L 106.02 112.66
  L 106.03 113.74
  Q 105.29 115.79 105.46 118.24
  Q 103.84 126.94 112.01 131.72
  A 1.13 1.13 0.0 0 0 113.68 130.50
  L 112.92 127.09
  Q 112.81 126.57 113.34 126.59
  Q 114.11 126.62 114.61 127.45
  Q 115.55 129.02 115.77 131.35
  Q 115.82 131.88 116.34 131.78
  Q 117.62 131.53 118.10 130.25
  Q 118.25 129.84 118.23 129.40
  L 118.06 125.08
  Q 119.62 126.10 120.03 127.21
  A 0.51 0.50 32.2 0 0 121.01 126.99
  L 120.31 120.15
  L 123.85 106.55
  C 128.66 87.35 127.18 69.30 116.45 52.76
  Q 116.05 52.10 116.03 51.68
  Q 116.01 50.96 116.63 51.30
  C 120.48 53.38 124.30 63.49 125.39 66.88
  L 126.70 71.14
  L 127.33 74.01
  L 127.98 77.31
  L 128.24 89.45
  A 0.48 0.48 0.0 0 0 129.15 89.65
  L 131.14 85.54
  Q 131.75 87.15 131.54 88.95
  Q 131.40 90.22 132.14 89.18
  Q 136.22 83.39 134.29 75.43
  L 133.40 71.31
  L 130.49 64.51
  Q 126.83 56.95 120.53 52.12
  L 111.21 47.19
  L 104.77 45.48
  Q 104.32 45.37 104.33 45.83
  Q 104.39 49.89 101.71 53.41
  Z
  M 95.27 118.56
  C 95.22 124.24 91.94 130.44 89.25 136.25
  C 88.40 138.62 85.28 146.99 89.24 147.76
  C 92.39 148.37 92.86 143.98 93.39 141.50
  L 94.36 138.16
  C 97.60 129.56 101.40 123.56 100.35 113.24
  L 99.78 107.74
  Q 99.73 107.25 99.23 107.25
  L 94.80 107.25
  Q 94.38 107.25 94.41 107.68
  L 95.27 118.56
  Z"
/>
<path fill="#b39b9d" d="
  M 78.62 0.80
  Q 73.02 10.26 70.91 20.59
  Q 69.82 25.89 68.01 31.00
  C 66.40 35.53 75.24 42.48 78.61 44.26
  A 0.85 0.84 -51.3 0 1 78.76 45.65
  C 77.27 46.92 76.29 48.52 74.65 49.67
  C 62.88 57.91 48.62 84.59 66.34 94.19
  Q 66.80 94.44 66.88 94.95
  Q 68.59 106.27 72.31 116.97
  C 73.21 119.54 71.36 124.46 72.36 127.62
  Q 73.72 131.91 78.92 134.14
  Q 67.07 135.00 68.17 124.03
  Q 68.53 120.42 68.22 118.49
  C 67.48 113.90 65.46 110.67 64.79 106.80
  Q 63.97 102.03 62.92 97.47
  Q 63.20 96.24 62.05 95.45
  Q 61.65 93.84 58.71 93.05
  C 47.60 79.93 58.88 60.32 69.36 51.06
  Q 71.99 50.37 72.04 48.39
  C 76.34 47.89 74.14 43.03 71.42 43.91
  C 71.01 42.61 69.84 41.67 69.14 40.92
  Q 67.95 39.64 67.48 40.37
  C 65.36 35.93 62.72 33.87 65.06 28.54
  Q 66.79 24.45 65.29 21.88
  Q 67.35 21.10 66.89 20.48
  C 67.98 15.74 72.72 -0.34 78.62 0.80
  Z"
/>
<path fill="#e16266" d="
  M 81.56 2.79
  L 85.37 8.32
  Q 85.80 8.94 85.13 9.29
  Q 78.47 12.78 73.78 18.66
  A 0.20 0.19 71.0 0 1 73.44 18.49
  Q 75.36 10.13 79.83 2.83
  A 1.04 1.03 43.6 0 1 81.56 2.79
  Z"
/>
<path fill="#d0cfcf" d="
  M 84.81 2.91
  L 90.38 6.51
  Q 91.02 6.92 90.36 7.31
  Q 89.10 8.04 87.58 7.67
  A 1.05 1.01 78.7 0 1 86.96 7.24
  L 84.40 3.32
  A 0.30 0.30 0.0 0 1 84.81 2.91
  Z"
/>
<path fill="#9a9a9a" d="
  M 103.88 8.76
  Q 104.08 10.67 106.94 11.06
  Q 107.79 11.18 107.47 11.93
  Q 106.42 12.29 104.83 14.08
  Q 103.27 15.85 99.05 17.75
  Q 98.28 18.10 98.50 19.21
  Q 97.66 19.17 97.68 20.54
  L 97.45 19.74
  Q 97.31 19.28 96.85 19.39
  Q 87.37 21.75 79.25 26.20
  Q 78.34 25.72 78.49 24.27
  L 82.32 21.03
  A 1.44 1.43 -65.8 0 0 81.36 18.50
  L 80.31 18.53
  Q 80.00 17.44 80.94 16.69
  Q 83.63 14.52 87.52 10.64
  Q 95.69 6.85 103.88 8.76
  Z
  M 99.07 14.50
  C 96.05 9.97 89.48 11.34 86.57 14.72
  A 0.62 0.61 7.1 0 0 87.31 15.67
  C 91.26 13.71 94.09 12.03 97.98 15.45
  A 0.73 0.73 0.0 0 0 99.07 14.50
  Z"
/>
<path fill="#d0cfcf" d="
  M 103.88 8.76
  Q 119.69 11.53 126.39 25.64
  L 125.09 26.33
  L 123.90 25.04
  Q 123.25 18.46 116.69 16.97
  Q 114.44 13.14 108.58 12.42
  Q 108.27 12.51 107.47 11.93
  Q 107.79 11.18 106.94 11.06
  Q 104.08 10.67 103.88 8.76
  Z"
/>
<path fill="#fbfafa" d="
  M 126.84 8.90
  L 154.62 13.33
  Q 155.19 13.42 155.37 13.97
  L 156.85 18.54
  L 169.06 65.13
  A 0.12 0.12 0.0 0 0 169.30 65.11
  L 169.61 61.34
  Q 171.85 52.38 173.24 44.03
  Q 175.32 31.62 177.33 20.13
  Q 177.58 18.65 179.06 18.92
  L 204.56 23.50
  A 1.34 1.33 -77.4 0 1 205.61 25.17
  L 204.71 28.46
  L 183.41 124.44
  A 1.28 1.28 0.0 0 1 182.04 125.44
  L 162.00 123.45
  L 157.48 122.89
  Q 156.95 122.82 156.85 122.30
  L 144.59 58.94
  L 143.00 49.92
  A 0.30 0.30 0.0 0 0 142.41 49.92
  L 136.93 78.68
  L 135.38 71.03
  L 141.18 40.68
  Q 141.29 40.08 141.90 40.18
  L 144.19 40.56
  A 0.75 0.75 0.0 0 1 144.81 41.32
  Q 144.69 44.72 146.53 47.60
  C 146.34 48.27 146.18 48.73 146.32 49.47
  Q 152.86 84.51 159.71 119.48
  Q 159.80 119.95 160.28 119.99
  L 161.39 120.07
  L 179.72 121.95
  Q 180.66 122.04 180.86 121.13
  L 201.84 27.12
  Q 192.18 24.20 181.10 22.84
  Q 180.25 22.74 180.11 23.58
  L 171.95 71.41
  Q 171.24 72.08 171.06 72.78
  A 1.66 1.51 -47.6 0 1 168.01 73.07
  L 153.33 17.92
  Q 152.49 16.30 151.42 16.14
  Q 141.68 14.70 129.87 12.73
  A 0.76 0.75 -81.8 0 0 129.01 13.38
  L 128.71 15.85
  L 126.84 8.90
  Z"
/>
<path fill="#d0cfcf" d="
  M 116.57 11.88
  A 0.82 0.82 0.0 0 1 116.56 10.27
  L 120.63 9.39
  Q 121.54 9.20 121.01 9.97
  Q 119.33 12.45 116.57 11.88
  Z"
/>
<path fill="#e16266" d="
  M 125.56 11.00
  Q 126.67 15.72 126.49 20.55
  Q 126.47 21.11 126.10 20.68
  L 120.47 14.18
  A 0.78 0.77 -46.0 0 1 120.46 13.18
  Q 122.14 11.14 124.77 10.51
  A 0.66 0.66 0.0 0 1 125.56 11.00
  Z"
/>
<path fill="#837b7b" d="
  M 87.52 10.64
  Q 83.63 14.52 80.94 16.69
  Q 80.00 17.44 80.31 18.53
  Q 79.41 19.01 78.94 19.02
  Q 76.27 20.76 75.73 19.65
  Q 80.90 12.91 87.52 10.64
  Z"
/>
<path fill="#000000" d="
  M 86.57 14.72
  C 89.48 11.34 96.05 9.97 99.07 14.50
  A 0.73 0.73 0.0 0 1 97.98 15.45
  C 94.09 12.03 91.26 13.71 87.31 15.67
  A 0.62 0.61 7.1 0 1 86.57 14.72
  Z"
/>
<path fill="#fbfafa" d="
  M 107.47 11.93
  Q 108.27 12.51 108.58 12.42
  Q 109.64 13.90 109.89 15.32
  A 1.69 1.67 -72.2 0 0 110.32 16.17
  C 116.29 22.51 124.76 29.47 125.83 38.75
  C 121.35 40.74 116.59 42.11 111.85 40.31
  C 108.00 38.86 104.90 37.80 100.58 37.76
  C 91.31 37.67 83.69 35.40 78.86 26.90
  Q 79.06 26.55 79.25 26.20
  Q 87.37 21.75 96.85 19.39
  Q 97.31 19.28 97.45 19.74
  L 97.68 20.54
  C 97.77 24.15 103.20 24.45 105.63 23.47
  A 0.61 0.61 0.0 0 1 106.34 23.67
  Q 109.12 27.43 113.39 25.62
  A 0.90 0.90 0.0 0 0 113.83 24.35
  Q 113.39 23.55 112.49 23.81
  L 109.96 17.85
  Q 109.40 15.56 105.13 15.50
  A 0.72 0.72 0.0 0 0 104.59 16.70
  L 105.69 17.92
  Q 103.79 20.69 98.86 19.45
  L 98.50 19.21
  Q 98.28 18.10 99.05 17.75
  Q 103.27 15.85 104.83 14.08
  Q 106.42 12.29 107.47 11.93
  Z"
/>
<path fill="#9a9a9a" d="
  M 116.69 16.97
  Q 112.81 16.61 113.23 18.47
  A 0.76 0.75 -9.4 0 0 114.05 19.05
  Q 120.47 18.42 122.08 24.36
  A 0.91 0.90 -1.0 0 0 122.76 25.01
  Q 123.36 25.14 123.90 25.04
  L 125.09 26.33
  Q 125.95 30.84 128.65 35.10
  Q 130.37 43.05 121.97 45.43
  Q 124.81 42.37 125.83 38.75
  C 124.76 29.47 116.29 22.51 110.32 16.17
  A 1.69 1.67 -72.2 0 1 109.89 15.32
  Q 109.64 13.90 108.58 12.42
  Q 114.44 13.14 116.69 16.97
  Z"
/>
<path fill="#fbfafa" d="
  M 65.29 21.88
  Q 66.79 24.45 65.06 28.54
  C 62.96 23.31 56.99 16.62 51.04 17.24
  Q 46.65 16.38 41.75 17.00
  C 28.01 18.73 16.15 19.79 4.30 24.28
  Q 3.81 24.46 3.80 24.98
  Q 3.75 27.04 4.09 29.08
  Q 11.90 75.74 19.87 122.40
  Q 19.96 122.93 20.48 123.03
  Q 21.87 123.32 22.91 122.78
  L 46.32 117.82
  A 0.63 0.62 79.8 0 0 46.81 117.11
  L 43.51 97.08
  Q 43.43 96.61 43.89 96.51
  L 58.71 93.05
  Q 61.65 93.84 62.05 95.45
  L 47.44 98.97
  Q 46.99 99.07 47.07 99.53
  L 50.31 119.48
  A 0.89 0.88 -10.5 0 1 49.61 120.49
  L 23.19 125.89
  L 18.77 127.04
  A 1.43 1.43 0.0 0 1 17.00 125.89
  L 0.00 25.39
  L 0.00 22.41
  Q 16.20 16.15 33.49 14.52
  Q 48.32 13.12 49.95 13.25
  Q 58.74 13.99 65.29 21.88
  Z"
/>
<path fill="#ff914d" d="
  M 153.33 17.92
  L 168.01 73.07
  A 1.66 1.51 -47.6 0 0 171.06 72.78
  Q 171.24 72.08 171.95 71.41
  L 173.32 75.92
  A 0.34 0.33 -48.3 0 0 173.97 75.88
  L 182.99 25.71
  Q 183.11 25.05 183.78 25.03
  Q 185.95 24.97 187.99 25.52
  Q 194.78 27.37 201.84 27.12
  L 180.86 121.13
  Q 180.66 122.04 179.72 121.95
  L 161.39 120.07
  L 147.37 46.27
  Q 147.23 45.52 147.08 46.27
  Q 146.90 47.15 146.53 47.60
  Q 144.69 44.72 144.81 41.32
  A 0.75 0.75 0.0 0 0 144.19 40.56
  L 141.90 40.18
  Q 141.29 40.08 141.18 40.68
  L 135.38 71.03
  L 128.94 57.49
  L 132.11 41.34
  Q 132.22 40.79 131.69 40.60
  L 131.10 40.40
  Q 130.99 34.15 129.50 28.56
  L 131.57 16.47
  A 1.77 1.76 -80.8 0 1 133.56 15.03
  L 153.33 17.92
  Z"
/>
<path fill="#000000" d="
  M 109.96 17.85
  C 106.22 18.90 107.94 26.92 112.49 23.81
  Q 113.39 23.55 113.83 24.35
  A 0.90 0.90 0.0 0 1 113.39 25.62
  Q 109.12 27.43 106.34 23.67
  A 0.61 0.61 0.0 0 0 105.63 23.47
  C 103.20 24.45 97.77 24.15 97.68 20.54
  Q 97.66 19.17 98.50 19.21
  L 98.86 19.45
  C 101.32 24.30 108.38 22.03 105.69 17.92
  L 104.59 16.70
  A 0.72 0.72 0.0 0 1 105.13 15.50
  Q 109.40 15.56 109.96 17.85
  Z"
/>
<path fill="#ff914d" d="
  M 51.04 17.24
  C 56.99 16.62 62.96 23.31 65.06 28.54
  C 62.72 33.87 65.36 35.93 67.48 40.37
  L 69.36 51.06
  C 58.88 60.32 47.60 79.93 58.71 93.05
  L 43.89 96.51
  Q 43.43 96.61 43.51 97.08
  L 46.81 117.11
  A 0.63 0.62 79.8 0 1 46.32 117.82
  L 22.91 122.78
  L 6.90 27.53
  A 1.72 1.71 73.7 0 1 7.91 25.67
  C 21.11 19.93 36.59 18.95 51.04 17.24
  Z
  M 33.50 90.26
  Q 40.33 91.21 45.43 88.89
  C 51.70 86.04 50.25 80.85 49.07 74.39
  C 46.70 61.29 44.62 49.31 40.04 35.96
  Q 38.70 32.04 35.84 31.37
  C 32.61 25.00 24.96 26.49 19.23 29.01
  Q 18.81 29.20 18.77 29.66
  Q 18.64 31.44 18.86 33.18
  Q 22.14 59.24 25.80 85.24
  Q 26.22 88.20 28.05 89.89
  A 1.07 1.06 -30.4 0 0 29.03 90.14
  Q 32.08 89.38 33.50 90.26
  Z"
/>
<path fill="#000000" d="
  M 116.69 16.97
  Q 123.25 18.46 123.90 25.04
  Q 123.36 25.14 122.76 25.01
  A 0.91 0.90 -1.0 0 1 122.08 24.36
  Q 120.47 18.42 114.05 19.05
  A 0.76 0.75 -9.4 0 1 113.23 18.47
  Q 112.81 16.61 116.69 16.97
  Z"
/>
<path fill="#d0cfcf" d="
  M 105.69 17.92
  C 108.38 22.03 101.32 24.30 98.86 19.45
  Q 103.79 20.69 105.69 17.92
  Z"
/>
<path fill="#d0cfcf" d="
  M 109.96 17.85
  L 112.49 23.81
  C 107.94 26.92 106.22 18.90 109.96 17.85
  Z"
/>
<path fill="#575757" d="
  M 80.31 18.53
  L 81.36 18.50
  A 1.44 1.43 -65.8 0 1 82.32 21.03
  L 78.49 24.27
  Q 78.23 24.18 77.67 24.32
  L 78.94 19.02
  Q 79.41 19.01 80.31 18.53
  Z"
/>
<path fill="#ff914d" d="
  M 156.85 18.54
  C 157.81 18.77 158.47 19.01 158.74 20.06
  Q 163.99 40.37 169.61 61.34
  L 169.30 65.11
  A 0.12 0.12 0.0 0 1 169.06 65.13
  L 156.85 18.54
  Z"
/>
<path fill="#474242" d="
  M 78.94 19.02
  L 77.67 24.32
  L 69.92 32.48
  Q 71.72 24.98 75.73 19.65
  Q 76.27 20.76 78.94 19.02
  Z"
/>
<path fill="#837b7b" d="
  M 77.67 24.32
  Q 78.23 24.18 78.49 24.27
  Q 78.34 25.72 79.25 26.20
  Q 79.06 26.55 78.86 26.90
  Q 73.94 35.61 82.02 43.08
  Q 74.01 41.43 69.92 32.48
  L 77.67 24.32
  Z"
/>
<path fill="#837b7b" d="
  M 126.39 25.64
  Q 128.82 30.08 128.65 35.10
  Q 125.95 30.84 125.09 26.33
  L 126.39 25.64
  Z"
/>
<path fill="#d0cfcf" d="
  M 78.86 26.90
  C 83.69 35.40 91.31 37.67 100.58 37.76
  C 104.90 37.80 108.00 38.86 111.85 40.31
  C 116.59 42.11 121.35 40.74 125.83 38.75
  Q 124.81 42.37 121.97 45.43
  Q 120.46 46.63 118.31 47.18
  Q 117.81 47.30 117.44 46.96
  Q 101.57 32.61 82.02 43.08
  Q 73.94 35.61 78.86 26.90
  Z"
/>
<path fill="#fbfafa" d="
  M 35.84 31.37
  C 41.40 45.15 43.78 60.89 46.37 76.76
  C 48.10 87.39 41.18 87.30 33.50 90.26
  Q 32.08 89.38 29.03 90.14
  A 1.07 1.06 -30.4 0 1 28.05 89.89
  Q 26.22 88.20 25.80 85.24
  Q 22.14 59.24 18.86 33.18
  Q 18.64 31.44 18.77 29.66
  Q 18.81 29.20 19.23 29.01
  C 24.96 26.49 32.61 25.00 35.84 31.37
  Z
  M 32.66 86.31
  C 36.81 85.98 43.97 84.90 43.25 79.26
  Q 40.77 59.90 34.78 37.75
  Q 34.17 35.48 31.37 30.71
  Q 27.15 29.29 22.05 31.16
  Q 21.61 31.32 21.68 31.79
  L 28.99 85.77
  A 1.04 1.03 10.2 0 0 29.54 86.55
  Q 31.07 87.37 32.66 86.31
  Z"
/>
<path fill="#ff914d" d="
  M 204.71 28.46
  L 208.00 29.49
  L 208.00 30.51
  L 186.44 127.31
  A 0.87 0.86 -80.6 0 1 185.51 127.98
  L 163.26 125.66
  Q 162.78 125.61 162.53 125.20
  Q 162.01 124.37 162.00 123.45
  L 182.04 125.44
  A 1.28 1.28 0.0 0 0 183.41 124.44
  L 204.71 28.46
  Z"
/>
<path fill="#ff914d" d="
  M 31.37 30.71
  Q 29.49 32.19 26.87 31.86
  A 1.00 0.99 3.9 0 0 25.75 32.83
  Q 25.72 36.85 26.19 40.26
  Q 29.35 63.29 32.66 86.31
  Q 31.07 87.37 29.54 86.55
  A 1.04 1.03 10.2 0 1 28.99 85.77
  L 21.68 31.79
  Q 21.61 31.32 22.05 31.16
  Q 27.15 29.29 31.37 30.71
  Z"
/>
<path fill="#fbfafa" d="
  M 71.42 43.91
  L 72.04 48.39
  Q 71.99 50.37 69.36 51.06
  L 67.48 40.37
  Q 67.95 39.64 69.14 40.92
  C 69.84 41.67 71.01 42.61 71.42 43.91
  Z"
/>
<path fill="#474242" d="
  M 101.52 41.24
  Q 100.92 41.17 100.75 41.76
  Q 99.76 41.70 99.51 41.33
  Q 99.29 41.00 99.69 40.94
  Q 100.63 40.81 101.52 41.24
  Z"
/>
<path fill="#e16266" d="
  M 83.54 45.29
  Q 82.48 45.53 83.37 44.90
  Q 88.04 41.62 93.74 40.95
  Q 94.47 40.86 94.06 41.47
  C 92.66 43.55 86.29 44.66 83.54 45.29
  Z"
/>
<path fill="#e16266" d="
  M 101.52 41.24
  Q 107.08 41.46 111.34 44.84
  Q 111.84 45.23 111.20 45.15
  Q 105.57 44.46 100.75 41.76
  Q 100.92 41.17 101.52 41.24
  Z"
/>
<path fill="#d0cfcf" d="
  M 100.76 51.40
  C 100.32 49.52 100.91 45.91 98.07 46.31
  Q 97.25 45.80 96.42 46.50
  Q 96.01 45.77 95.00 46.32
  C 93.78 46.98 94.02 47.97 92.29 48.24
  C 94.47 37.57 106.61 44.60 100.76 51.40
  Z"
/>
<path fill="#ff914d" d="
  M 72.04 48.39
  L 71.42 43.91
  C 74.14 43.03 76.34 47.89 72.04 48.39
  Z"
/>
<path fill="#fbfafa" d="
  M 128.71 43.75
  L 126.60 54.35
  Q 124.65 54.47 123.71 51.49
  L 124.55 47.12
  L 128.71 43.75
  Z"
/>
<path fill="#fbfafa" d="
  M 111.21 47.19
  Q 111.53 50.02 111.99 50.69
  Q 122.82 66.51 120.58 85.17
  Q 119.75 92.14 115.12 96.89
  C 111.52 98.08 107.90 99.81 104.55 100.38
  C 85.50 103.59 77.04 89.48 77.35 72.64
  C 77.52 63.38 80.43 54.73 87.99 49.08
  A 0.66 0.65 -25.5 0 1 89.02 49.44
  C 89.37 50.76 89.64 52.04 90.52 53.12
  Q 96.12 59.93 101.71 53.41
  Q 104.39 49.89 104.33 45.83
  Q 104.32 45.37 104.77 45.48
  L 111.21 47.19
  Z"
/>
<path fill="#d0cfcf" d="
  M 101.71 53.41
  Q 96.12 59.93 90.52 53.12
  C 89.64 52.04 89.37 50.76 89.02 49.44
  A 0.66 0.65 -25.5 0 0 87.99 49.08
  C 80.43 54.73 77.52 63.38 77.35 72.64
  C 77.04 89.48 85.50 103.59 104.55 100.38
  C 107.90 99.81 111.52 98.08 115.12 96.89
  L 113.64 100.22
  Q 96.31 110.58 80.66 99.59
  Q 75.30 91.75 74.43 85.06
  Q 72.98 73.87 76.69 62.89
  Q 77.35 60.92 80.37 55.31
  Q 82.42 51.49 83.65 47.41
  L 90.26 45.62
  Q 90.84 45.46 90.80 46.06
  C 90.36 52.89 95.29 56.01 101.71 53.41
  Z"
/>
<path fill="#ff914d" d="
  M 96.42 46.50
  L 96.60 51.70
  A 0.71 0.71 0.0 0 1 95.55 52.35
  Q 93.04 50.99 92.29 48.24
  C 94.02 47.97 93.78 46.98 95.00 46.32
  Q 96.01 45.77 96.42 46.50
  Z"
/>
<path fill="#ff914d" d="
  M 98.07 46.31
  C 100.91 45.91 100.32 49.52 100.76 51.40
  Q 99.74 52.46 99.02 52.25
  Q 98.50 52.09 98.46 51.56
  L 98.07 46.31
  Z"
/>
<path fill="#9a9a9a" d="
  M 111.21 47.19
  L 120.53 52.12
  Q 119.96 52.25 119.75 52.71
  A 0.77 0.76 -56.8 0 0 119.93 53.58
  C 122.85 56.25 125.55 58.67 127.42 62.23
  Q 128.52 64.33 130.49 64.51
  L 133.40 71.31
  L 127.33 74.01
  L 126.70 71.14
  Q 129.46 71.17 130.72 69.37
  Q 131.04 68.91 130.84 68.40
  L 130.00 66.22
  Q 129.81 65.70 129.27 65.85
  L 125.39 66.88
  C 124.30 63.49 120.48 53.38 116.63 51.30
  Q 116.01 50.96 116.03 51.68
  Q 116.05 52.10 116.45 52.76
  Q 116.23 52.68 116.01 52.76
  A 0.48 0.47 68.5 0 0 115.74 53.40
  C 117.53 57.66 120.08 61.96 121.40 65.99
  Q 124.25 74.69 124.90 83.82
  C 125.41 91.00 123.93 98.32 122.40 105.55
  A 0.81 0.80 7.8 0 0 123.14 106.51
  L 123.85 106.55
  L 120.31 120.15
  Q 120.39 118.92 119.21 118.89
  L 120.15 114.99
  Q 120.27 114.48 119.77 114.64
  Q 115.25 116.09 110.08 115.15
  L 106.03 113.74
  L 106.02 112.66
  L 110.95 113.30
  C 114.37 114.25 117.07 113.05 120.23 112.21
  Q 120.89 112.03 121.15 111.66
  Q 121.49 111.15 121.21 110.62
  Q 120.99 110.20 121.13 109.75
  L 121.60 108.26
  Q 121.85 107.49 121.06 107.71
  Q 116.86 108.93 112.34 108.72
  Q 113.98 105.52 116.08 102.75
  C 117.21 101.26 118.97 100.77 118.96 98.13
  L 122.36 92.95
  Q 122.71 92.42 122.20 92.05
  L 121.87 91.81
  A 0.62 0.62 0.0 0 0 120.97 91.99
  Q 118.14 96.82 113.64 100.22
  L 115.12 96.89
  Q 119.75 92.14 120.58 85.17
  Q 122.82 66.51 111.99 50.69
  Q 111.53 50.02 111.21 47.19
  Z"
/>
<path fill="#837b7b" d="
  M 83.65 47.41
  Q 82.42 51.49 80.37 55.31
  Q 77.35 60.92 76.69 62.89
  Q 72.98 73.87 74.43 85.06
  Q 75.30 91.75 80.66 99.59
  Q 76.31 96.13 73.81 92.00
  A 0.61 0.60 -26.3 0 0 73.09 91.76
  Q 71.69 92.29 72.26 93.26
  Q 77.17 101.76 87.05 105.48
  A 1.18 1.16 -1.7 0 1 87.70 106.08
  Q 88.04 106.81 88.02 107.75
  Q 80.10 110.36 71.43 106.53
  Q 62.74 77.45 78.67 52.30
  Q 79.00 51.78 78.46 51.49
  L 78.09 51.29
  Q 77.58 51.01 77.24 51.49
  Q 72.21 58.61 69.41 67.05
  Q 66.42 67.02 64.49 64.34
  Q 70.43 52.18 83.65 47.41
  Z"
/>
<path fill="#ff914d" d="
  M 144.59 58.94
  L 132.94 120.20
  A 1.01 1.00 9.0 0 1 131.81 121.01
  L 122.41 119.73
  Q 122.01 118.45 122.44 117.48
  L 128.52 118.43
  A 1.12 1.12 0.0 0 0 129.80 117.52
  L 134.82 89.03
  Q 136.74 84.12 136.93 78.68
  L 142.41 49.92
  A 0.30 0.30 0.0 0 1 143.00 49.92
  L 144.59 58.94
  Z"
/>
<path fill="#d0cfcf" d="
  M 120.53 52.12
  Q 126.83 56.95 130.49 64.51
  Q 128.52 64.33 127.42 62.23
  C 125.55 58.67 122.85 56.25 119.93 53.58
  A 0.77 0.76 -56.8 0 1 119.75 52.71
  Q 119.96 52.25 120.53 52.12
  Z"
/>
<path fill="#d0cfcf" d="
  M 116.45 52.76
  C 127.18 69.30 128.66 87.35 123.85 106.55
  L 123.14 106.51
  A 0.81 0.80 7.8 0 1 122.40 105.55
  C 123.93 98.32 125.41 91.00 124.90 83.82
  Q 124.25 74.69 121.40 65.99
  C 120.08 61.96 117.53 57.66 115.74 53.40
  A 0.48 0.47 68.5 0 1 116.01 52.76
  Q 116.23 52.68 116.45 52.76
  Z"
/>
<path fill="#474242" d="
  M 64.49 64.34
  Q 66.42 67.02 69.41 67.05
  L 67.87 71.36
  L 62.73 68.94
  Q 62.99 66.28 64.49 64.34
  Z"
/>
<path fill="#575757" d="
  M 126.70 71.14
  L 125.39 66.88
  L 129.27 65.85
  Q 129.81 65.70 130.00 66.22
  L 130.84 68.40
  Q 131.04 68.91 130.72 69.37
  Q 129.46 71.17 126.70 71.14
  Z"
/>
<path fill="#837b7b" d="
  M 62.73 68.94
  L 67.87 71.36
  L 67.60 73.52
  Q 64.58 73.01 62.24 71.09
  Q 61.90 69.98 62.73 68.94
  Z"
/>
<path fill="#474242" d="
  M 62.24 71.09
  Q 64.58 73.01 67.60 73.52
  L 66.89 77.36
  Q 63.62 77.02 60.72 74.99
  Q 60.89 73.01 62.24 71.09
  Z"
/>
<path fill="#575757" d="
  M 133.40 71.31
  L 134.29 75.43
  L 131.53 76.39
  Q 129.69 77.34 127.98 77.31
  L 127.33 74.01
  L 133.40 71.31
  Z"
/>
<path fill="#d0cfcf" d="
  M 60.72 74.99
  Q 63.62 77.02 66.89 77.36
  L 66.73 89.38
  A 0.50 0.49 33.6 0 1 65.78 89.57
  L 64.21 86.04
  A 0.51 0.51 0.0 0 0 63.24 86.25
  L 63.27 89.23
  Q 63.27 90.07 62.78 89.39
  Q 58.32 83.24 60.72 74.99
  Z"
/>
<path fill="#fbfafa" d="
  M 134.29 75.43
  Q 136.22 83.39 132.14 89.18
  Q 131.40 90.22 131.54 88.95
  Q 131.75 87.15 131.14 85.54
  L 131.53 76.39
  L 134.29 75.43
  Z"
/>
<path fill="#d0cfcf" d="
  M 131.53 76.39
  L 131.14 85.54
  L 129.15 89.65
  A 0.48 0.48 0.0 0 1 128.24 89.45
  L 127.98 77.31
  Q 129.69 77.34 131.53 76.39
  Z"
/>
<path fill="#fbfafa" d="
  M 134.82 89.03
  L 129.80 117.52
  A 1.12 1.12 0.0 0 1 128.52 118.43
  L 122.44 117.48
  Q 122.53 116.01 123.21 114.76
  L 126.17 114.81
  Q 127.18 114.83 127.37 113.84
  L 131.36 92.57
  L 134.82 89.03
  Z"
/>
<path fill="#ff914d" d="
  M 131.36 92.57
  L 127.37 113.84
  Q 127.18 114.83 126.17 114.81
  L 123.21 114.76
  L 128.05 94.65
  Q 128.17 94.12 128.66 93.89
  L 131.36 92.57
  Z"
/>
<path fill="#ff914d" d="
  M 62.05 95.45
  Q 63.20 96.24 62.92 97.47
  L 51.70 100.13
  A 1.21 1.21 0.0 0 0 50.79 101.51
  L 53.92 120.48
  Q 54.10 121.59 53.01 121.82
  L 24.99 127.69
  A 1.05 1.03 -27.8 0 1 24.05 127.41
  Q 23.49 126.85 23.19 125.89
  L 49.61 120.49
  A 0.89 0.88 -10.5 0 0 50.31 119.48
  L 47.07 99.53
  Q 46.99 99.07 47.44 98.97
  L 62.05 95.45
  Z"
/>
<path fill="#837b7b" d="
  M 118.96 98.13
  C 118.97 100.77 117.21 101.26 116.08 102.75
  Q 113.98 105.52 112.34 108.72
  Q 112.08 108.72 111.90 108.81
  L 106.80 107.74
  L 107.08 106.19
  Q 107.18 105.67 107.67 105.49
  Q 113.98 103.15 118.96 98.13
  Z"
/>
<path fill="#b39b9d" d="
  M 112.05 133.79
  C 109.13 135.54 106.97 133.80 103.97 132.04
  Q 103.54 131.79 103.30 131.35
  Q 102.31 129.58 100.71 128.33
  Q 103.56 118.27 101.65 107.59
  A 0.61 0.59 -14.8 0 1 102.05 106.92
  L 103.95 106.27
  A 0.66 0.66 0.0 0 1 104.82 107.00
  C 103.14 117.33 100.40 127.87 112.05 133.79
  Z"
/>
<path fill="#474242" d="
  M 88.02 107.75
  L 88.70 112.27
  C 82.33 114.73 78.54 113.12 72.78 111.94
  L 71.43 106.53
  Q 80.10 110.36 88.02 107.75
  Z"
/>
<path fill="#b39b9d" d="
  M 87.37 149.33
  L 85.43 150.00
  L 83.45 150.00
  L 81.67 147.73
  Q 81.37 147.36 81.39 146.89
  Q 81.70 139.58 85.31 132.87
  Q 85.97 131.92 88.21 129.72
  C 93.50 124.53 91.10 113.98 90.16 107.31
  Q 90.10 106.83 90.54 106.65
  Q 91.95 106.07 92.27 107.27
  Q 95.22 118.40 90.50 128.95
  C 87.99 134.58 82.64 145.26 87.37 149.33
  Z"
/>
<path fill="#837b7b" d="
  M 100.35 113.24
  L 97.86 112.97
  A 0.97 0.97 0.0 0 0 96.89 113.50
  Q 96.42 114.44 96.49 115.50
  A 1.25 1.23 62.3 0 1 96.23 116.37
  Q 95.54 117.28 95.27 118.56
  L 94.41 107.68
  Q 94.38 107.25 94.80 107.25
  L 99.23 107.25
  Q 99.73 107.25 99.78 107.74
  L 100.35 113.24
  Z"
/>
<path fill="#474242" d="
  M 106.80 107.74
  L 111.90 108.81
  L 110.95 113.30
  L 106.02 112.66
  L 106.80 107.74
  Z"
/>
<path fill="#575757" d="
  M 110.95 113.30
  L 111.90 108.81
  Q 112.08 108.72 112.34 108.72
  Q 116.86 108.93 121.06 107.71
  Q 121.85 107.49 121.60 108.26
  L 121.13 109.75
  Q 120.99 110.20 121.21 110.62
  Q 121.49 111.15 121.15 111.66
  Q 120.89 112.03 120.23 112.21
  C 117.07 113.05 114.37 114.25 110.95 113.30
  Z"
/>
<path fill="#837b7b" d="
  M 72.78 111.94
  C 78.54 113.12 82.33 114.73 88.70 112.27
  Q 89.16 112.83 89.01 113.94
  L 83.52 115.41
  Q 78.72 115.96 73.66 114.08
  Q 73.03 113.53 72.78 111.94
  Z"
/>
<path fill="#9a9a9a" d="
  M 100.35 113.24
  C 101.40 123.56 97.60 129.56 94.36 138.16
  Q 93.42 135.92 90.57 136.13
  Q 89.97 136.35 89.25 136.25
  C 91.94 130.44 95.22 124.24 95.27 118.56
  Q 95.54 117.28 96.23 116.37
  A 1.25 1.23 62.3 0 0 96.49 115.50
  Q 96.42 114.44 96.89 113.50
  A 0.97 0.97 0.0 0 1 97.86 112.97
  L 100.35 113.24
  Z"
/>
<path fill="#474242" d="
  M 106.03 113.74
  L 110.08 115.15
  Q 111.66 118.12 109.94 119.35
  L 105.46 118.24
  Q 105.29 115.79 106.03 113.74
  Z"
/>
<path fill="#575757" d="
  M 89.01 113.94
  L 89.63 118.47
  L 86.44 119.29
  Q 85.55 118.85 85.72 119.15
  Q 85.64 115.04 83.52 115.41
  L 89.01 113.94
  Z"
/>
<path fill="#474242" d="
  M 73.66 114.08
  Q 78.72 115.96 83.52 115.41
  Q 85.64 115.04 85.72 119.15
  Q 80.45 120.45 74.30 118.64
  L 73.66 114.08
  Z"
/>
<path fill="#575757" d="
  M 119.21 118.89
  Q 115.29 120.07 111.40 119.75
  Q 112.38 119.60 109.94 119.35
  Q 111.66 118.12 110.08 115.15
  Q 115.25 116.09 119.77 114.64
  Q 120.27 114.48 120.15 114.99
  L 119.21 118.89
  Z"
/>
<path fill="#d0cfcf" d="
  M 105.46 118.24
  L 109.94 119.35
  Q 112.38 119.60 111.40 119.75
  Q 111.60 126.46 118.06 125.08
  L 118.23 129.40
  Q 118.25 129.84 118.10 130.25
  Q 117.62 131.53 116.34 131.78
  Q 115.82 131.88 115.77 131.35
  Q 115.55 129.02 114.61 127.45
  Q 114.11 126.62 113.34 126.59
  Q 112.81 126.57 112.92 127.09
  L 113.68 130.50
  A 1.13 1.13 0.0 0 1 112.01 131.72
  Q 103.84 126.94 105.46 118.24
  Z"
/>
<path fill="#fbfafa" d="
  M 89.63 118.47
  Q 90.67 125.55 85.17 129.99
  L 86.44 119.29
  L 89.63 118.47
  Z"
/>
<path fill="#d0cfcf" d="
  M 85.72 119.15
  Q 85.55 118.85 86.44 119.29
  L 85.17 129.99
  Q 84.13 131.33 81.81 131.78
  A 0.56 0.56 0.0 0 1 81.15 131.14
  L 81.74 127.44
  A 0.73 0.73 0.0 0 0 80.39 126.94
  Q 79.24 128.85 79.27 131.19
  Q 79.28 131.86 78.62 131.72
  C 75.56 131.08 76.78 127.78 77.23 125.84
  A 0.60 0.60 0.0 0 0 76.17 125.35
  L 74.68 127.37
  Q 74.54 127.56 74.31 127.47
  Q 73.95 127.32 73.96 126.99
  Q 74.12 123.27 74.30 118.64
  Q 80.45 120.45 85.72 119.15
  Z"
/>
<path fill="#fbfafa" d="
  M 119.21 118.89
  Q 120.39 118.92 120.31 120.15
  L 121.01 126.99
  A 0.51 0.50 32.2 0 1 120.03 127.21
  Q 119.62 126.10 118.06 125.08
  Q 111.60 126.46 111.40 119.75
  Q 115.29 120.07 119.21 118.89
  Z"
/>
<path fill="#fbfafa" d="
  M 94.36 138.16
  L 93.39 141.50
  Q 89.91 142.32 90.57 136.13
  Q 93.42 135.92 94.36 138.16
  Z"
/>
<path fill="#d0cfcf" d="
  M 89.25 136.25
  Q 89.97 136.35 90.57 136.13
  Q 89.91 142.32 93.39 141.50
  C 92.86 143.98 92.39 148.37 89.24 147.76
  C 85.28 146.99 88.40 138.62 89.25 136.25
  Z"
/>
</svg>
