<?xml version="1.0" standalone="no"?>
<!DOCTYPE svg PUBLIC "-//W3C//DTD SVG 20010904//EN"
 "http://www.w3.org/TR/2001/REC-SVG-20010904/DTD/svg10.dtd">
<svg version="1.0" xmlns="http://www.w3.org/2000/svg"
 width="603.000000pt" height="269.000000pt" viewBox="0 0 603.000000 269.000000"
 preserveAspectRatio="xMidYMid meet">
<metadata>
Created by potrace 1.16, written by Peter Selinger 2001-2019
</metadata>
<g transform="translate(0.000000,269.000000) scale(0.100000,-0.100000)"
fill="#fff" stroke="none">
<path d="M716 2373 c-3 -10 -62 -227 -130 -483 -69 -256 -195 -725 -280 -1044
-86 -318 -156 -582 -156 -587 0 -12 697 -12 704 0 3 4 68 241 145 526 77 285
142 519 144 521 3 3 192 -389 452 -938 l56 -118 314 0 c175 0 316 4 319 9 3 5
48 167 100 361 l95 351 137 147 c76 81 162 172 192 203 l54 56 -84 197 -85
197 79 291 c43 160 80 300 84 310 5 17 -10 18 -350 18 -329 0 -355 -1 -360
-17 -3 -10 -64 -236 -136 -502 -71 -266 -131 -486 -133 -488 -2 -2 -112 223
-243 499 l-240 503 -336 3 c-314 2 -337 1 -342 -15z"/>
<path d="M3297 2143 c52 -137 98 -251 102 -256 4 -4 110 107 234 248 l227 255
-328 0 -329 0 94 -247z"/>
<path d="M4200 1869 c-267 -286 -484 -523 -483 -527 1 -4 106 -252 233 -550
l232 -542 236 2 236 3 183 680 c100 374 193 718 205 765 l23 85 316 3 316 2
56 213 c31 116 68 251 81 300 l24 87 -586 0 -587 -1 -485 -520z"/>
<path d="M3129 802 c-48 -49 -454 -504 -478 -535 -13 -16 6 -17 368 -17 294 0
381 3 381 12 0 15 -209 570 -219 580 -4 5 -27 -13 -52 -40z"/>
</g>
</svg>
