<?xml version="1.0" standalone="no"?>
<!DOCTYPE svg PUBLIC "-//W3C//DTD SVG 20010904//EN"
 "http://www.w3.org/TR/2001/REC-SVG-20010904/DTD/svg10.dtd">
<svg version="1.0" xmlns="http://www.w3.org/2000/svg"
 width="832.000000pt" height="832.000000pt" viewBox="0 0 832.000000 832.000000"
 preserveAspectRatio="xMidYMid meet">
<metadata>
Created by potrace 1.14, written by Peter Selinger 2001-2017
</metadata>
<g transform="translate(0.000000,832.000000) scale(0.100000,-0.100000)"
fill="#000000" stroke="none">
<path d="M3180 7145 c-25 -7 -65 -19 -90 -25 -74 -19 -155 -112 -229 -262 -59
-121 -147 -366 -172 -482 -10 -47 -19 -62 -41 -75 -21 -12 -26 -20 -20 -36 12
-35 7 -178 -9 -214 l-15 -34 -49 88 c-58 103 -169 226 -257 285 -33 22 -92 50
-130 61 l-69 21 -327 -36 c-507 -57 -753 -96 -1001 -157 -122 -30 -333 -99
-421 -137 -80 -34 -79 -25 -37 -276 20 -121 105 -624 187 -1116 371 -2207 420
-2493 422 -2495 6 -4 933 197 941 204 4 4 -22 184 -58 400 -36 216 -65 403
-65 416 0 14 7 26 18 29 9 2 147 35 305 71 288 67 288 67 331 51 48 -19 91
-58 84 -78 -3 -8 -122 -41 -297 -82 -254 -61 -291 -72 -291 -89 0 -19 115
-742 125 -783 11 -48 4 -51 -545 -163 -333 -68 -525 -111 -528 -119 -6 -19 28
-52 52 -52 20 0 1099 224 1139 236 11 3 17 15 17 34 0 16 -27 191 -60 389 -33
198 -60 374 -60 390 0 19 7 34 18 40 9 5 118 33 240 62 184 44 225 51 232 39
5 -7 27 -107 49 -221 27 -142 57 -256 91 -356 74 -214 74 -215 74 -448 1 -209
1 -210 29 -267 16 -32 45 -71 65 -88 86 -71 270 -91 465 -51 60 13 111 20 114
18 2 -3 -9 -31 -25 -63 -58 -116 -105 -286 -118 -432 l-7 -71 43 -56 c36 -47
47 -55 76 -55 18 0 45 5 61 11 15 6 76 10 135 10 l107 -2 30 42 c38 52 64 120
100 267 16 64 41 148 55 185 43 114 158 347 172 347 14 0 81 -74 96 -106 12
-25 138 -100 204 -122 36 -12 52 -12 87 -2 23 7 83 16 134 20 118 11 195 44
258 111 80 86 90 120 89 297 -2 149 -1 152 20 152 11 0 98 -11 191 -25 140
-19 172 -21 183 -11 13 13 44 166 336 1706 l146 765 -30 170 c-17 94 -33 177
-36 185 -6 13 -7 13 -12 0 -3 -8 -54 -267 -112 -575 -59 -308 -110 -553 -114
-545 -11 27 -56 262 -56 293 0 50 222 1201 234 1214 13 13 112 1 130 -17 6 -6
13 -41 17 -79 6 -67 43 -181 59 -181 4 0 11 11 14 25 6 22 26 36 26 18 0 -4
70 -376 156 -827 86 -452 211 -1113 279 -1469 67 -356 125 -650 127 -653 6 -5
670 -74 720 -74 20 0 39 4 42 8 3 4 93 404 201 888 268 1203 493 2212 571
2559 36 160 67 298 70 308 5 15 -4 17 -88 17 -115 0 -268 20 -415 54 -135 31
-229 35 -237 9 -3 -10 -84 -459 -181 -998 -97 -539 -179 -990 -182 -1002 -3
-13 -11 -23 -18 -23 -11 0 -23 32 -61 163 -7 23 -27 8 -44 -32 -17 -41 -62
-59 -95 -37 -14 9 -25 17 -25 19 0 10 -589 2209 -592 2213 -7 6 -746 114 -784
114 -71 0 -69 7 -120 -298 -21 -122 -41 -219 -45 -215 -22 22 -41 203 -37 351
5 152 4 155 -31 285 l-36 132 -40 20 c-70 34 -188 33 -375 -5 l-160 -32 -78
26 c-191 63 -219 68 -422 76 -224 9 -249 15 -382 101 -45 29 -132 77 -192 107
-121 61 -171 70 -246 47z m325 -180 c63 -41 115 -79 115 -84 0 -16 -68 -33
-101 -26 -25 6 -41 23 -85 91 -53 83 -59 94 -49 94 3 0 57 -34 120 -75z m784
-191 c315 -86 548 -265 712 -546 53 -91 54 -93 25 -106 -20 -9 -27 -7 -45 12
-12 12 -21 29 -21 38 0 9 -9 45 -20 81 -26 85 -91 159 -175 198 -33 16 -67 29
-77 29 -9 0 -30 17 -47 38 -53 68 -148 120 -248 137 l-43 7 25 -54 c14 -29 25
-59 25 -66 0 -8 75 -91 168 -185 188 -193 283 -307 348 -417 59 -100 104 -218
110 -293 6 -58 3 -67 -35 -144 -23 -45 -62 -103 -86 -128 -46 -47 -132 -95
-172 -95 -13 0 -67 35 -125 80 -129 101 -303 190 -443 226 -85 23 -121 27
-245 27 -204 0 -347 -33 -550 -129 l-95 -45 -38 43 c-95 107 -144 206 -154
312 -7 79 8 151 53 247 l36 77 96 47 c52 26 130 62 173 81 98 41 381 133 421
137 30 2 32 0 43 -51 7 -29 23 -64 35 -77 45 -48 172 -70 262 -45 36 10 38 9
81 -33 53 -54 101 -71 174 -64 66 7 105 30 101 59 -5 36 -30 43 -88 25 -43
-14 -57 -15 -78 -4 -84 41 -95 195 -17 237 31 17 31 21 1 57 -28 34 -83 53
-149 53 -60 0 -68 -21 -27 -71 56 -70 60 -116 14 -159 -33 -32 -112 -39 -164
-15 -46 21 -118 102 -112 128 2 9 27 29 55 44 87 44 153 89 229 159 40 37 74
70 76 74 2 5 -22 15 -52 24 -32 10 -61 25 -71 38 -32 47 -17 48 114 12z m551
-3 c0 -19 -81 -81 -108 -82 -76 -3 -104 9 -86 38 15 24 194 64 194 44z m-3559
-713 c55 -25 134 -96 144 -129 3 -9 24 -24 46 -34 82 -37 119 -107 203 -385
97 -322 167 -635 287 -1285 52 -281 57 -401 20 -477 -65 -134 -245 -209 -498
-210 -84 0 -140 5 -154 13 -16 8 -50 10 -111 5 l-87 -6 -31 33 c-49 52 -65
115 -109 432 -23 165 -46 329 -51 365 -5 36 -28 205 -50 375 -22 171 -47 357
-55 415 -43 305 -86 674 -88 736 -1 44 4 78 11 87 15 18 135 62 222 82 100 22
232 15 301 -17z m1494 -539 c67 -61 82 -93 98 -204 17 -115 9 -148 -42 -178
-39 -23 -60 -21 -66 6 -14 66 -65 370 -65 391 0 38 23 33 75 -15z m2515 0 c0
-12 -119 -626 -126 -646 -11 -38 -94 52 -94 102 0 9 -9 15 -23 15 -26 0 -71
42 -86 81 -7 20 -19 28 -48 32 -27 5 -50 19 -78 47 -38 39 -39 40 -19 61 25
29 91 59 130 59 46 0 187 116 253 208 46 63 55 71 72 62 10 -6 19 -16 19 -21z
m-1312 -93 c81 -43 126 -138 103 -217 -15 -49 -40 -91 -51 -84 -4 2 -10 32
-13 65 -3 33 -12 72 -21 85 -21 31 -77 46 -144 38 -45 -5 -60 -12 -92 -45 -63
-63 -79 -43 -36 47 23 49 61 91 101 113 28 16 121 15 153 -2z m302 -111 c167
-42 169 -43 175 -83 11 -64 24 -93 76 -175 119 -184 226 -447 269 -655 47
-234 52 -536 11 -730 -24 -114 -89 -252 -160 -339 -28 -34 -63 -88 -78 -120
-27 -55 -32 -60 -118 -105 -307 -161 -610 -193 -897 -97 -80 26 -199 85 -277
135 -52 34 -68 52 -120 139 -150 250 -194 416 -194 730 1 197 18 325 68 512
29 106 55 168 149 358 63 127 125 259 137 295 12 36 25 69 29 73 7 8 245 77
268 77 8 0 12 -18 12 -59 0 -172 105 -285 265 -286 96 0 160 20 190 59 37 49
76 144 81 200 9 85 13 98 32 92 9 -3 46 -12 82 -21z m634 -326 c47 -44 115
-119 150 -165 68 -92 152 -231 143 -240 -9 -9 -64 24 -86 53 -12 16 -44 62
-70 103 -27 41 -97 122 -155 180 -97 97 -117 125 -99 143 15 15 34 3 117 -74z
m-206 -29 c121 -205 222 -451 275 -671 53 -218 62 -304 62 -599 0 -286 -9
-378 -56 -615 -32 -158 -37 -175 -59 -175 -36 0 -37 26 -8 168 104 514 100
822 -17 1276 -44 175 -75 255 -184 482 -50 105 -91 199 -91 208 0 37 28 10 78
-74z m-2197 -848 c36 -18 86 -36 110 -40 l44 -8 3 -224 c4 -306 -3 -326 -65
-190 -26 57 -41 80 -54 80 -16 0 -19 -10 -21 -77 l-3 -78 -33 50 c-38 58 -70
139 -84 215 -16 88 6 320 30 308 4 -2 37 -18 73 -36z m2866 1 c5 -16 8 -91 7
-168 0 -155 -13 -209 -76 -312 -37 -60 -53 -68 -45 -20 7 39 -4 109 -18 114
-6 1 -25 -31 -44 -72 -35 -78 -47 -93 -61 -79 -5 5 -10 117 -11 249 l-3 240
42 7 c23 4 56 14 74 22 36 17 108 44 120 45 4 1 11 -11 15 -26z m-82 -1101
c-64 -366 -103 -563 -113 -574 -19 -22 -30 -22 -170 -1 l-114 18 5 30 c3 16
10 42 16 58 10 26 13 27 80 27 44 0 72 5 79 13 6 7 45 195 87 418 41 222 77
415 81 428 6 29 137 167 142 151 2 -6 -40 -261 -93 -568z m-1711 -608 c19 -50
-2 -193 -40 -272 -50 -103 -187 -226 -259 -234 l-30 -3 5 55 c9 121 7 145 -17
148 -30 4 -63 -62 -70 -140 -5 -53 -8 -58 -30 -58 -13 0 -36 12 -50 26 -24 24
-25 29 -18 92 12 118 12 136 -6 140 -11 2 -29 -14 -50 -42 -53 -74 -58 -65
-53 92 3 75 7 151 10 168 l4 31 58 -14 c130 -31 367 -24 497 16 42 13 42 13
49 -5z m749 -6 c106 -28 301 -31 392 -6 47 14 62 15 71 5 17 -17 46 -319 33
-332 -8 -7 -16 -2 -27 15 -24 35 -59 70 -72 70 -6 0 -10 -37 -10 -99 0 -117
-3 -127 -43 -147 -35 -19 -42 -12 -51 52 -10 73 -53 144 -87 144 -28 0 -31
-15 -14 -79 22 -88 20 -119 -9 -127 -31 -7 -124 54 -187 124 -84 93 -129 230
-114 347 8 64 5 63 118 33z m-605 -705 c47 -35 48 -44 18 -155 -16 -57 -35
-129 -44 -161 -10 -39 -27 -71 -49 -94 -29 -32 -37 -35 -70 -30 -24 4 -47 17
-62 34 -22 25 -23 33 -18 122 3 70 13 123 37 198 30 91 36 102 59 106 46 8
103 -1 129 -20z"/>
<path d="M1000 5944 c-42 -8 -119 -35 -125 -44 -3 -4 38 -322 90 -706 52 -385
118 -872 146 -1084 45 -332 54 -387 71 -402 24 -21 77 -23 102 -5 16 12 12 48
-68 612 -161 1132 -186 1329 -186 1443 0 71 4 112 12 120 7 7 36 12 65 12 63
0 140 27 124 43 -12 12 -186 19 -231 11z"/>
<path d="M6282 6398 c3 -7 113 -424 244 -926 l239 -914 8 71 c9 69 7 77 -92
448 -55 208 -155 585 -221 838 -95 366 -124 464 -141 478 -25 20 -43 22 -37 5z"/>
<path d="M8186 5993 c-3 -10 -194 -873 -426 -1918 -321 -1447 -426 -1905 -440
-1919 -18 -19 -25 -18 -397 18 -208 20 -390 39 -405 42 -24 5 -28 2 -28 -18 0
-56 -2 -55 405 -98 209 -22 419 -43 466 -47 85 -6 86 -5 92 18 3 13 121 542
262 1174 141 633 333 1492 426 1910 94 418 173 774 176 790 5 30 3 31 -49 48
-68 21 -75 21 -82 0z"/>
</g>
</svg>
