<?xml version="1.0" standalone="no"?>
<!DOCTYPE svg PUBLIC "-//W3C//DTD SVG 20010904//EN"
 "http://www.w3.org/TR/2001/REC-SVG-20010904/DTD/svg10.dtd">
<svg version="1.0" xmlns="http://www.w3.org/2000/svg"
 width="300.000000pt" height="300.000000pt" viewBox="0 0 300.000000 300.000000"
 preserveAspectRatio="xMidYMid meet">
<metadata>
Created by potrace 1.14, written by Peter Selinger 2001-2017
</metadata>
<g transform="translate(0.000000,300.000000) scale(0.100000,-0.100000)"
fill="#000000" stroke="none">
<path d="M0 1500 l0 -1500 1500 0 1500 0 0 1500 0 1500 -1500 0 -1500 0 0
-1500z m1520 1027 l124 -62 108 -295 c59 -162 108 -298 108 -302 0 -5 -49 -8
-109 -8 l-109 0 -10 28 c-5 15 -64 176 -131 358 -66 182 -121 334 -121 338 0
11 13 6 140 -57z m-38 -319 l136 -373 399 -5 398 -5 -317 -238 c-175 -130
-318 -239 -318 -241 0 -2 54 -181 120 -397 66 -216 119 -396 118 -399 -2 -4
-151 102 -333 236 -181 133 -332 243 -336 243 -3 1 -151 -102 -329 -228 -179
-126 -326 -228 -328 -227 -2 3 169 581 223 757 4 11 -86 82 -314 250 -176 128
-320 237 -320 241 -1 4 178 9 396 10 l397 3 131 373 c71 204 132 372 135 372
3 0 67 -168 142 -372z m1114 -474 c68 -36 124 -67 124 -69 0 -1 -139 -103
-310 -226 -170 -123 -310 -230 -310 -237 0 -7 54 -188 120 -401 66 -213 120
-390 120 -394 0 -4 -60 23 -134 60 l-134 67 -91 300 c-50 166 -104 344 -119
397 l-29 97 316 236 c174 129 317 235 319 236 2 0 59 -30 128 -66z m-1123
-847 c65 -49 77 -62 65 -72 -7 -7 -136 -98 -286 -203 l-274 -191 -120 60 c-66
33 -118 63 -115 66 3 3 140 101 304 219 341 245 284 229 426 121z"/>
</g>
</svg>
